ISO-10303-21;
HEADER;
FILE_DESCRIPTION (( 'STEP AP214' ),
    '1' );
FILE_NAME ('KEMET_X7R_C0805CDH.STEP',
    '2024-08-21T06:10:27',
    ( '' ),
    ( '' ),
    'SwSTEP 2.0',
    'SolidWorks 2021',
    '' );
FILE_SCHEMA (( 'AUTOMOTIVE_DESIGN' ));
ENDSEC;

DATA;
#1 = ORIENTED_EDGE ( 'NONE', *, *, #1078, .F. ) ;
#2 = DIRECTION ( 'NONE',  ( 0.000000000000000000, 0.000000000000000000, 1.000000000000000000 ) ) ;
#3 = ORIENTED_EDGE ( 'NONE', *, *, #46, .T. ) ;
#4 = DIRECTION ( 'NONE',  ( 0.000000000000000000, 0.000000000000000000, 1.000000000000000000 ) ) ;
#5 = UNCERTAINTY_MEASURE_WITH_UNIT (LENGTH_MEASURE( 1.000000000000000082E-05 ), #1261, 'distance_accuracy_value', 'NONE');
#6 = DIRECTION ( 'NONE',  ( 0.000000000000000000, 0.000000000000000000, 1.000000000000000000 ) ) ;
#7 = LINE ( 'NONE', #110, #281 ) ;
#8 = CARTESIAN_POINT ( 'NONE',  ( -0.9999999999999995559, 0.04999999999999991257, 0.6249999999999996669 ) ) ;
#9 = AXIS2_PLACEMENT_3D ( 'NONE', #576, #373, #660 ) ;
#10 = ORIENTED_EDGE ( 'NONE', *, *, #903, .T. ) ;
#11 = CARTESIAN_POINT ( 'NONE',  ( 0.9499999999999997335, 0.000000000000000000, 3.295974604355932986E-16 ) ) ;
#12 = MECHANICAL_DESIGN_GEOMETRIC_PRESENTATION_REPRESENTATION (  '', ( #1094 ), #851 ) ;
#13 = DIRECTION ( 'NONE',  ( -1.000000000000000000, 0.000000000000000000, 0.000000000000000000 ) ) ;
#14 = DIRECTION ( 'NONE',  ( 0.000000000000000000, 0.000000000000000000, 1.000000000000000000 ) ) ;
#15 = CARTESIAN_POINT ( 'NONE',  ( -0.4999999999999997780, 0.04999999999999991257, -0.6249999999999998890 ) ) ;
#16 = EDGE_CURVE ( 'NONE', #311, #1071, #739, .T. ) ;
#17 = DIRECTION ( 'NONE',  ( -3.469446951953614682E-16, -0.000000000000000000, -1.000000000000000000 ) ) ;
#18 = ADVANCED_FACE ( 'NONE', ( #918 ), #502, .F. ) ;
#19 = ORIENTED_EDGE ( 'NONE', *, *, #569, .T. ) ;
#20 = CARTESIAN_POINT ( 'NONE',  ( 0.4999999999881765689, 1.399999999999999911, 0.6083333333333331705 ) ) ;
#21 = DIRECTION ( 'NONE',  ( 0.000000000000000000, -1.000000000000000000, 0.000000000000000000 ) ) ;
#22 = DIRECTION ( 'NONE',  ( 1.000000000000000000, 0.000000000000000000, 0.000000000000000000 ) ) ;
#23 = ADVANCED_FACE ( 'NONE', ( #904 ), #102, .T. ) ;
#24 = CYLINDRICAL_SURFACE ( 'NONE', #664, 0.05000000000000002359 ) ;
#25 = AXIS2_PLACEMENT_3D ( 'NONE', #1125, #361, #855 ) ;
#26 = EDGE_LOOP ( 'NONE', ( #38, #1076, #623, #852 ) ) ;
#27 = DIRECTION ( 'NONE',  ( 1.000000000000000000, 0.000000000000000000, -0.000000000000000000 ) ) ;
#28 = EDGE_CURVE ( 'NONE', #537, #274, #171, .T. ) ;
#29 = LINE ( 'NONE', #829, #88 ) ;
#30 = DIRECTION ( 'NONE',  ( 0.000000000000000000, 0.000000000000000000, 1.000000000000000000 ) ) ;
#31 = VECTOR ( 'NONE', #419, 1000.000000000000000 ) ;
#32 = VERTEX_POINT ( 'NONE', #204 ) ;
#33 = DIRECTION ( 'NONE',  ( 0.000000000000000000, 0.000000000000000000, 1.000000000000000000 ) ) ;
#34 = EDGE_CURVE ( 'NONE', #401, #1139, #313, .T. ) ;
#35 = DIRECTION ( 'NONE',  ( 0.000000000000000000, -1.000000000000000000, 0.000000000000000000 ) ) ;
#36 = CARTESIAN_POINT ( 'NONE',  ( 0.9499999999999995115, 0.04999999999999991257, 0.5749999999999996225 ) ) ;
#37 = VECTOR ( 'NONE', #873, 1000.000000000000000 ) ;
#38 = ORIENTED_EDGE ( 'NONE', *, *, #799, .T. ) ;
#39 = DIRECTION ( 'NONE',  ( 0.000000000000000000, 0.000000000000000000, 1.000000000000000000 ) ) ;
#40 = CARTESIAN_POINT ( 'NONE',  ( 0.000000000000000000, 1.399999999999999911, 0.5749999999999996225 ) ) ;
#41 = FACE_OUTER_BOUND ( 'NONE', #793, .T. ) ;
#42 = EDGE_CURVE ( 'NONE', #748, #815, #676, .T. ) ;
#43 = EDGE_LOOP ( 'NONE', ( #781, #412, #826, #365 ) ) ;
#44 = DIRECTION ( 'NONE',  ( -0.000000000000000000, -1.000000000000000000, -0.000000000000000000 ) ) ;
#45 = ORIENTED_EDGE ( 'NONE', *, *, #400, .F. ) ;
#46 = EDGE_CURVE ( 'NONE', #1147, #311, #321, .T. ) ;
#47 = CARTESIAN_POINT ( 'NONE',  ( -0.9499999999999997335, 0.000000000000000000, 3.295974604355932986E-16 ) ) ;
#48 = CARTESIAN_POINT ( 'NONE',  ( 1.000000000000000000, 0.04999999999999991257, -0.5749999999999998446 ) ) ;
#49 = EDGE_LOOP ( 'NONE', ( #579, #1176, #646, #440 ) ) ;
#50 = VECTOR ( 'NONE', #460, 1000.000000000000000 ) ;
#51 = EDGE_LOOP ( 'NONE', ( #257, #146, #808, #1053 ) ) ;
#52 = LINE ( 'NONE', #451, #1085 ) ;
#53 = DIRECTION ( 'NONE',  ( -0.000000000000000000, 1.000000000000000000, -0.000000000000000000 ) ) ;
#54 = VECTOR ( 'NONE', #1093, 1000.000000000000000 ) ;
#55 = ORIENTED_EDGE ( 'NONE', *, *, #310, .T. ) ;
#56 = AXIS2_PLACEMENT_3D ( 'NONE', #118, #1038, #425 ) ;
#57 = EDGE_LOOP ( 'NONE', ( #245, #278, #351, #1 ) ) ;
#58 = ADVANCED_FACE ( 'NONE', ( #712 ), #509, .T. ) ;
#59 = PLANE ( 'NONE',  #571 ) ;
#60 = DIRECTION ( 'NONE',  ( 0.000000000000000000, 0.000000000000000000, -1.000000000000000000 ) ) ;
#61 = CARTESIAN_POINT ( 'NONE',  ( 0.9999999999999995559, 1.399999999999999911, 0.5749999999999996225 ) ) ;
#62 = CARTESIAN_POINT ( 'NONE',  ( 0.000000000000000000, 1.449999999999999956, 0.000000000000000000 ) ) ;
#63 = ADVANCED_FACE ( 'NONE', ( #515 ), #707, .T. ) ;
#64 = ORIENTED_EDGE ( 'NONE', *, *, #429, .T. ) ;
#65 = CLOSED_SHELL ( 'NONE', ( #542, #595, #212, #227, #539, #1202, #158, #1119, #441, #63, #813, #680, #363, #501, #759, #961, #691, #953 ) ) ;
#66 = DIRECTION ( 'NONE',  ( 1.000000000000000000, 0.000000000000000000, 1.734723475976807341E-16 ) ) ;
#67 = DIRECTION ( 'NONE',  ( 0.000000000000000000, 1.000000000000000000, 0.000000000000000000 ) ) ;
#68 = ADVANCED_FACE ( 'NONE', ( #618 ), #134, .T. ) ;
#69 = ORIENTED_EDGE ( 'NONE', *, *, #250, .F. ) ;
#70 = CARTESIAN_POINT ( 'NONE',  ( -0.9999999999999995559, 0.04999999999999991257, 0.5749999999999996225 ) ) ;
#71 = AXIS2_PLACEMENT_3D ( 'NONE', #422, #1208, #231 ) ;
#72 = AXIS2_PLACEMENT_3D ( 'NONE', #279, #859, #157 ) ;
#73 = ORIENTED_EDGE ( 'NONE', *, *, #1055, .T. ) ;
#74 = PRESENTATION_STYLE_ASSIGNMENT (( #170 ) ) ;
#75 = EDGE_CURVE ( 'NONE', #222, #948, #1005, .T. ) ;
#76 = APPLICATION_CONTEXT ( 'automotive_design' ) ;
#77 = ORIENTED_EDGE ( 'NONE', *, *, #519, .F. ) ;
#78 = DIRECTION ( 'NONE',  ( 0.000000000000000000, 0.000000000000000000, 1.000000000000000000 ) ) ;
#79 = EDGE_CURVE ( 'NONE', #292, #771, #610, .T. ) ;
#80 = VECTOR ( 'NONE', #901, 1000.000000000000000 ) ;
#81 = DIRECTION ( 'NONE',  ( -1.000000000000000000, 0.000000000000000000, 0.000000000000000000 ) ) ;
#82 = ORIENTED_EDGE ( 'NONE', *, *, #1031, .F. ) ;
#83 = DIRECTION ( 'NONE',  ( -1.000000000000000000, 0.000000000000000000, -3.469446951953614682E-16 ) ) ;
#84 = EDGE_CURVE ( 'NONE', #236, #1092, #899, .T. ) ;
#85 = DIRECTION ( 'NONE',  ( -1.000000000000000000, -0.000000000000000000, 8.673617379884036705E-17 ) ) ;
#86 = VERTEX_POINT ( 'NONE', #433 ) ;
#87 = DIRECTION ( 'NONE',  ( -0.000000000000000000, -0.000000000000000000, -1.000000000000000000 ) ) ;
#88 = VECTOR ( 'NONE', #731, 1000.000000000000000 ) ;
#89 = VERTEX_POINT ( 'NONE', #117 ) ;
#90 = DIRECTION ( 'NONE',  ( -1.000000000000000000, 0.000000000000000000, 0.000000000000000000 ) ) ;
#91 = DIRECTION ( 'NONE',  ( -1.000000000000000000, 0.000000000000000000, 0.000000000000000000 ) ) ;
#92 = AXIS2_PLACEMENT_3D ( 'NONE', #1153, #1143, #161 ) ;
#93 = ORIENTED_EDGE ( 'NONE', *, *, #947, .T. ) ;
#94 = AXIS2_PLACEMENT_3D ( 'NONE', #530, #123, #33 ) ;
#95 = LINE ( 'NONE', #1086, #1110 ) ;
#96 = VECTOR ( 'NONE', #611, 1000.000000000000000 ) ;
#97 = ORIENTED_EDGE ( 'NONE', *, *, #396, .T. ) ;
#98 = DIRECTION ( 'NONE',  ( 1.000000000000000000, -0.000000000000000000, -1.734723475976807341E-16 ) ) ;
#99 = EDGE_CURVE ( 'NONE', #311, #568, #29, .T. ) ;
#100 = ORIENTED_EDGE ( 'NONE', *, *, #258, .T. ) ;
#101 = DIRECTION ( 'NONE',  ( 0.000000000000000000, 0.000000000000000000, 1.000000000000000000 ) ) ;
#102 = CYLINDRICAL_SURFACE ( 'NONE', #128, 0.05000000000000002359 ) ;
#103 = DIRECTION ( 'NONE',  ( 0.000000000000000000, 0.000000000000000000, -1.000000000000000000 ) ) ;
#104 = AXIS2_PLACEMENT_3D ( 'NONE', #40, #347, #1224 ) ;
#105 = AXIS2_PLACEMENT_3D ( 'NONE', #792, #475, #985 ) ;
#106 = ORIENTED_EDGE ( 'NONE', *, *, #457, .F. ) ;
#107 = DIRECTION ( 'NONE',  ( 0.000000000000000000, 0.000000000000000000, 1.000000000000000000 ) ) ;
#108 = ADVANCED_FACE ( 'NONE', ( #1116 ), #232, .T. ) ;
#109 = DIRECTION ( 'NONE',  ( 0.000000000000000000, -1.000000000000000000, 0.000000000000000000 ) ) ;
#110 = CARTESIAN_POINT ( 'NONE',  ( -0.4999999999999996669, 0.01666666666666666644, 0.5749999999999998446 ) ) ;
#111 = DIRECTION ( 'NONE',  ( -1.734723475976807341E-16, 0.000000000000000000, 1.000000000000000000 ) ) ;
#112 = EDGE_CURVE ( 'NONE', #804, #884, #589, .T. ) ;
#113 = PRODUCT_DEFINITION_SHAPE ( 'NONE', 'NONE',  #1159 ) ;
#114 = EDGE_LOOP ( 'NONE', ( #303, #1135, #1244, #785 ) ) ;
#115 = CARTESIAN_POINT ( 'NONE',  ( 500000.0000000000582, 0.04999999999999991257, -0.5750000000433678204 ) ) ;
#116 = PRESENTATION_LAYER_ASSIGNMENT (  '', '', ( #1094 ) ) ;
#117 = CARTESIAN_POINT ( 'NONE',  ( -0.4999999999999995559, 0.04999999999999991257, 0.6249999999999996669 ) ) ;
#118 = CARTESIAN_POINT ( 'NONE',  ( -0.9499999999999995115, 1.399999999999999911, 0.5749999999999996225 ) ) ;
#119 = DIRECTION ( 'NONE',  ( 1.000000000000000000, -0.000000000000000000, -0.000000000000000000 ) ) ;
#120 = AXIS2_PLACEMENT_3D ( 'NONE', #794, #98, #14 ) ;
#121 = DIRECTION ( 'NONE',  ( -0.000000000000000000, 1.000000000000000000, 0.000000000000000000 ) ) ;
#122 = ORIENTED_EDGE ( 'NONE', *, *, #372, .T. ) ;
#123 = DIRECTION ( 'NONE',  ( -1.000000000000000000, -0.000000000000000000, -0.000000000000000000 ) ) ;
#124 = DIRECTION ( 'NONE',  ( 0.000000000000000000, 0.000000000000000000, 1.000000000000000000 ) ) ;
#125 = CARTESIAN_POINT ( 'NONE',  ( -0.9499999999999999556, 1.449999999999999956, -0.5749999999999998446 ) ) ;
#126 = LINE ( 'NONE', #234, #235 ) ;
#127 = EDGE_CURVE ( 'NONE', #1092, #991, #1240, .T. ) ;
#128 = AXIS2_PLACEMENT_3D ( 'NONE', #224, #823, #1193 ) ;
#129 = VECTOR ( 'NONE', #380, 1000.000000000000000 ) ;
#130 = DIRECTION ( 'NONE',  ( 3.469446951953614682E-16, 0.000000000000000000, -1.000000000000000000 ) ) ;
#131 = ORIENTED_EDGE ( 'NONE', *, *, #335, .F. ) ;
#132 = PLANE ( 'NONE',  #1252 ) ;
#133 = LINE ( 'NONE', #835, #550 ) ;
#134 = CYLINDRICAL_SURFACE ( 'NONE', #526, 0.03333333333333334675 ) ;
#135 = CARTESIAN_POINT ( 'NONE',  ( -0.9499999999999999556, 0.05000000000000000278, -0.5749999999999998446 ) ) ;
#136 = CIRCLE ( 'NONE', #1050, 0.05000000000000002359 ) ;
#137 = CYLINDRICAL_SURFACE ( 'NONE', #481, 0.05000000000000002359 ) ;
#138 = EDGE_LOOP ( 'NONE', ( #692, #497, #131, #289 ) ) ;
#139 = DIRECTION ( 'NONE',  ( 0.000000000000000000, 0.000000000000000000, 1.000000000000000000 ) ) ;
#140 = EDGE_CURVE ( 'NONE', #32, #900, #193, .T. ) ;
#141 = SPHERICAL_SURFACE ( 'NONE', #698, 0.05000000000000000278 ) ;
#142 = ORIENTED_EDGE ( 'NONE', *, *, #42, .T. ) ;
#143 = AXIS2_PLACEMENT_3D ( 'NONE', #503, #87, #693 ) ;
#144 = PRODUCT_RELATED_PRODUCT_CATEGORY ( 'part', '', ( #315 ) ) ;
#145 = CARTESIAN_POINT ( 'NONE',  ( -0.4999999999999995559, 1.449999999999999956, 0.6249999999999996669 ) ) ;
#146 = ORIENTED_EDGE ( 'NONE', *, *, #891, .T. ) ;
#147 = DIRECTION ( 'NONE',  ( 0.000000000000000000, 0.000000000000000000, 1.000000000000000000 ) ) ;
#148 = DIRECTION ( 'NONE',  ( 0.000000000000000000, 1.000000000000000000, 0.000000000000000000 ) ) ;
#149 = DIRECTION ( 'NONE',  ( -1.000000000000000000, -0.000000000000000000, -0.000000000000000000 ) ) ;
#150 = VERTEX_POINT ( 'NONE', #1228 ) ;
#151 = ORIENTED_EDGE ( 'NONE', *, *, #763, .F. ) ;
#152 =( NAMED_UNIT ( * ) SI_UNIT ( $, .STERADIAN. ) SOLID_ANGLE_UNIT ( ) );
#153 = AXIS2_PLACEMENT_3D ( 'NONE', #1074, #482, #284 ) ;
#154 = DIRECTION ( 'NONE',  ( 0.000000000000000000, -1.000000000000000000, -0.000000000000000000 ) ) ;
#155 = CYLINDRICAL_SURFACE ( 'NONE', #1069, 0.05000000000000002359 ) ;
#156 = ORIENTED_EDGE ( 'NONE', *, *, #343, .T. ) ;
#157 = DIRECTION ( 'NONE',  ( 0.000000000000000000, 0.000000000000000000, -1.000000000000000000 ) ) ;
#158 = ADVANCED_FACE ( 'NONE', ( #743 ), #938, .T. ) ;
#159 = CIRCLE ( 'NONE', #662, 0.05000000000000002359 ) ;
#160 = VERTEX_POINT ( 'NONE', #1131 ) ;
#161 = DIRECTION ( 'NONE',  ( 0.000000000000000000, 0.000000000000000000, 1.000000000000000000 ) ) ;
#162 = AXIS2_PLACEMENT_3D ( 'NONE', #1010, #421, #1114 ) ;
#163 = VERTEX_POINT ( 'NONE', #750 ) ;
#164 =( NAMED_UNIT ( * ) PLANE_ANGLE_UNIT ( ) SI_UNIT ( $, .RADIAN. ) );
#165 = ORIENTED_EDGE ( 'NONE', *, *, #79, .T. ) ;
#166 = DIRECTION ( 'NONE',  ( 0.000000000000000000, -1.000000000000000000, 0.000000000000000000 ) ) ;
#167 = VERTEX_POINT ( 'NONE', #1152 ) ;
#168 = PLANE ( 'NONE',  #1070 ) ;
#169 = ADVANCED_FACE ( 'NONE', ( #242 ), #949, .F. ) ;
#170 = SURFACE_STYLE_USAGE ( .BOTH. , #1229 ) ;
#171 = CIRCLE ( 'NONE', #379, 0.05000000000000002359 ) ;
#172 = EDGE_CURVE ( 'NONE', #163, #381, #942, .T. ) ;
#173 = VERTEX_POINT ( 'NONE', #445 ) ;
#174 =( LENGTH_UNIT ( ) NAMED_UNIT ( * ) SI_UNIT ( .MILLI., .METRE. ) );
#175 = MECHANICAL_DESIGN_GEOMETRIC_PRESENTATION_REPRESENTATION (  '', ( #1185 ), #1212 ) ;
#176 = AXIS2_PLACEMENT_3D ( 'NONE', #979, #293, #893 ) ;
#177 = EDGE_LOOP ( 'NONE', ( #1080, #69, #941, #838 ) ) ;
#178 = FACE_OUTER_BOUND ( 'NONE', #1056, .T. ) ;
#179 = ADVANCED_FACE ( 'NONE', ( #553 ), #1058, .T. ) ;
#180 = ORIENTED_EDGE ( 'NONE', *, *, #42, .F. ) ;
#181 = PLANE ( 'NONE',  #1270 ) ;
#182 = COLOUR_RGB ( '',0.7921568627450980005, 0.8196078431372548767, 0.9333333333333333481 ) ;
#183 = VECTOR ( 'NONE', #30, 1000.000000000000000 ) ;
#184 = ORIENTED_EDGE ( 'NONE', *, *, #1274, .F. ) ;
#185 =( NAMED_UNIT ( * ) SI_UNIT ( $, .STERADIAN. ) SOLID_ANGLE_UNIT ( ) );
#186 = DIRECTION ( 'NONE',  ( -1.734723475976807587E-16, -0.000000000000000000, -1.000000000000000000 ) ) ;
#187 = ORIENTED_EDGE ( 'NONE', *, *, #112, .T. ) ;
#188 = DIRECTION ( 'NONE',  ( 0.000000000000000000, 0.000000000000000000, -1.000000000000000000 ) ) ;
#189 = CARTESIAN_POINT ( 'NONE',  ( -0.4999999999999997780, 1.399999999999999911, -0.6249999999999998890 ) ) ;
#190 = ORIENTED_EDGE ( 'NONE', *, *, #640, .T. ) ;
#191 = DIRECTION ( 'NONE',  ( -1.000000000000000000, 0.000000000000000000, 0.000000000000000000 ) ) ;
#192 = CARTESIAN_POINT ( 'NONE',  ( 0.4999999999881765689, 0.04999999999999991257, 0.6083333333333331705 ) ) ;
#193 = CIRCLE ( 'NONE', #463, 0.05000000000000002359 ) ;
#194 = ORIENTED_EDGE ( 'NONE', *, *, #806, .F. ) ;
#195 = DIRECTION ( 'NONE',  ( 1.000000000000000000, 0.000000000000000000, 0.000000000000000000 ) ) ;
#196 = EDGE_CURVE ( 'NONE', #1015, #1227, #845, .T. ) ;
#197 = DIRECTION ( 'NONE',  ( 1.000000000000000000, 0.000000000000000000, -8.673617379884036705E-17 ) ) ;
#198 = ORIENTED_EDGE ( 'NONE', *, *, #494, .T. ) ;
#199 = FACE_OUTER_BOUND ( 'NONE', #984, .T. ) ;
#200 = AXIS2_PLACEMENT_3D ( 'NONE', #834, #522, #822 ) ;
#201 = EDGE_LOOP ( 'NONE', ( #666, #392, #710 ) ) ;
#202 = CARTESIAN_POINT ( 'NONE',  ( -0.9999999999999995559, 0.04999999999999991257, 0.5749999999999996225 ) ) ;
#203 = CIRCLE ( 'NONE', #1136, 0.05000000000000002359 ) ;
#204 = CARTESIAN_POINT ( 'NONE',  ( 0.4999999999999995559, 1.449999999999999956, 0.5749999999999997335 ) ) ;
#205 = DIRECTION ( 'NONE',  ( -1.000000000000000000, -0.000000000000000000, 8.673617379884036705E-17 ) ) ;
#206 = EDGE_CURVE ( 'NONE', #1256, #729, #52, .T. ) ;
#207 = EDGE_CURVE ( 'NONE', #1071, #1101, #1142, .T. ) ;
#208 = ORIENTED_EDGE ( 'NONE', *, *, #28, .T. ) ;
#209 = DIRECTION ( 'NONE',  ( -1.000000000000000000, 0.000000000000000000, 0.000000000000000000 ) ) ;
#210 = DIRECTION ( 'NONE',  ( -1.000000000000000000, 0.000000000000000000, 0.000000000000000000 ) ) ;
#211 = CARTESIAN_POINT ( 'NONE',  ( 0.4999999999881765689, 0.04999999999999991257, -0.6083333333333331705 ) ) ;
#212 = ADVANCED_FACE ( 'NONE', ( #659 ), #59, .F. ) ;
#213 = CIRCLE ( 'NONE', #865, 0.05000000000000002359 ) ;
#214 = ORIENTED_EDGE ( 'NONE', *, *, #1220, .T. ) ;
#215 = DIRECTION ( 'NONE',  ( 0.000000000000000000, 1.000000000000000000, 0.000000000000000000 ) ) ;
#216 = CARTESIAN_POINT ( 'NONE',  ( 0.4999999999881765689, 0.04999999999999991257, 0.5749999999999997335 ) ) ;
#217 = CARTESIAN_POINT ( 'NONE',  ( -0.4999999999999995559, 1.449999999999999956, 0.5749999999999997335 ) ) ;
#218 = CARTESIAN_POINT ( 'NONE',  ( 0.9499999999999995115, 1.449999999999999956, 0.5749999999999996225 ) ) ;
#219 = AXIS2_PLACEMENT_3D ( 'NONE', #1172, #864, #455 ) ;
#220 = LINE ( 'NONE', #921, #31 ) ;
#221 = CIRCLE ( 'NONE', #747, 0.03333333333333334675 ) ;
#222 = VERTEX_POINT ( 'NONE', #15 ) ;
#223 = CARTESIAN_POINT ( 'NONE',  ( 0.4999999999881765689, 1.433333333333333348, 0.5749999999999997335 ) ) ;
#224 = CARTESIAN_POINT ( 'NONE',  ( -0.9499999999999995115, 1.449999999999999956, 0.5749999999999996225 ) ) ;
#225 = CARTESIAN_POINT ( 'NONE',  ( 0.9499999999999995115, 0.000000000000000000, 0.5749999999999996225 ) ) ;
#226 = FACE_OUTER_BOUND ( 'NONE', #696, .T. ) ;
#227 = ADVANCED_FACE ( 'NONE', ( #819 ), #1186, .F. ) ;
#228 = CARTESIAN_POINT ( 'NONE',  ( 0.4999999999999997780, 0.04999999999999991257, -0.5749999999999998446 ) ) ;
#229 = ORIENTED_EDGE ( 'NONE', *, *, #75, .T. ) ;
#230 = CYLINDRICAL_SURFACE ( 'NONE', #389, 0.05000000000000002359 ) ;
#231 = DIRECTION ( 'NONE',  ( 0.000000000000000000, 0.000000000000000000, -1.000000000000000000 ) ) ;
#232 = PLANE ( 'NONE',  #1144 ) ;
#233 = DIRECTION ( 'NONE',  ( -0.000000000000000000, 0.000000000000000000, -1.000000000000000000 ) ) ;
#234 = CARTESIAN_POINT ( 'NONE',  ( 0.000000000000000000, 0.000000000000000000, 0.5749999999999996225 ) ) ;
#235 = VECTOR ( 'NONE', #119, 1000.000000000000000 ) ;
#236 = VERTEX_POINT ( 'NONE', #715 ) ;
#237 = PLANE ( 'NONE',  #993 ) ;
#238 = CARTESIAN_POINT ( 'NONE',  ( -0.4999999999999996669, 0.04999999999999991257, 0.5749999999999997335 ) ) ;
#239 = LINE ( 'NONE', #145, #1045 ) ;
#240 = ORIENTED_EDGE ( 'NONE', *, *, #478, .T. ) ;
#241 = CARTESIAN_POINT ( 'NONE',  ( -1.000000000000000000, 1.449999999999999956, -0.6249999999999998890 ) ) ;
#242 = FACE_OUTER_BOUND ( 'NONE', #51, .T. ) ;
#243 = CARTESIAN_POINT ( 'NONE',  ( -0.4999999999999996669, 1.433333333333333348, -0.5749999999999997335 ) ) ;
#244 = ORIENTED_EDGE ( 'NONE', *, *, #346, .T. ) ;
#245 = ORIENTED_EDGE ( 'NONE', *, *, #814, .F. ) ;
#246 =( LENGTH_UNIT ( ) NAMED_UNIT ( * ) SI_UNIT ( .MILLI., .METRE. ) );
#247 = ADVANCED_FACE ( 'NONE', ( #226 ), #309, .T. ) ;
#248 = CARTESIAN_POINT ( 'NONE',  ( -0.9999999999999995559, 1.449999999999999956, 0.5749999999999997335 ) ) ;
#249 = FACE_OUTER_BOUND ( 'NONE', #1022, .T. ) ;
#250 = EDGE_CURVE ( 'NONE', #762, #760, #126, .T. ) ;
#251 = EDGE_LOOP ( 'NONE', ( #397, #848, #1226, #1009 ) ) ;
#252 = VERTEX_POINT ( 'NONE', #323 ) ;
#253 = CARTESIAN_POINT ( 'NONE',  ( 500000.0000000000582, 0.01666666666666662133, 0.5749999999566317577 ) ) ;
#254 = CARTESIAN_POINT ( 'NONE',  ( 0.9499999999999999556, 0.04999999999999991257, -0.5749999999999998446 ) ) ;
#255 = DIRECTION ( 'NONE',  ( 0.000000000000000000, 0.000000000000000000, 1.000000000000000000 ) ) ;
#256 = CARTESIAN_POINT ( 'NONE',  ( -0.4999999999999997780, 1.449999999999999956, -0.6249999999999998890 ) ) ;
#257 = ORIENTED_EDGE ( 'NONE', *, *, #172, .T. ) ;
#258 = EDGE_CURVE ( 'NONE', #948, #160, #740, .T. ) ;
#259 = VERTEX_POINT ( 'NONE', #218 ) ;
#260 =( NAMED_UNIT ( * ) PLANE_ANGLE_UNIT ( ) SI_UNIT ( $, .RADIAN. ) );
#261 = DIRECTION ( 'NONE',  ( 1.000000000000000000, 0.000000000000000000, 0.000000000000000000 ) ) ;
#262 = DIRECTION ( 'NONE',  ( 0.000000000000000000, -1.000000000000000000, 0.000000000000000000 ) ) ;
#263 = AXIS2_PLACEMENT_3D ( 'NONE', #241, #839, #27 ) ;
#264 = ORIENTED_EDGE ( 'NONE', *, *, #806, .T. ) ;
#265 = PRESENTATION_STYLE_ASSIGNMENT (( #767 ) ) ;
#266 = EDGE_CURVE ( 'NONE', #259, #32, #620, .T. ) ;
#267 =( NAMED_UNIT ( * ) SI_UNIT ( $, .STERADIAN. ) SOLID_ANGLE_UNIT ( ) );
#268 = LINE ( 'NONE', #757, #613 ) ;
#269 = VERTEX_POINT ( 'NONE', #517 ) ;
#270 = FILL_AREA_STYLE_COLOUR ( '', #988 ) ;
#271 = ORIENTED_EDGE ( 'NONE', *, *, #990, .T. ) ;
#272 = DIRECTION ( 'NONE',  ( 0.000000000000000000, -0.000000000000000000, -1.000000000000000000 ) ) ;
#273 = VECTOR ( 'NONE', #154, 1000.000000000000000 ) ;
#274 = VERTEX_POINT ( 'NONE', #906 ) ;
#275 =( NAMED_UNIT ( * ) PLANE_ANGLE_UNIT ( ) SI_UNIT ( $, .RADIAN. ) );
#276 = EDGE_CURVE ( 'NONE', #173, #89, #416, .T. ) ;
#277 = CARTESIAN_POINT ( 'NONE',  ( 0.4999999999881765689, 0.01666666666666666644, 0.5749999998698956949 ) ) ;
#278 = ORIENTED_EDGE ( 'NONE', *, *, #637, .T. ) ;
#279 = CARTESIAN_POINT ( 'NONE',  ( 0.9499999999999995115, 0.04999999999999991257, 0.5749999999999996225 ) ) ;
#280 = AXIS2_PLACEMENT_3D ( 'NONE', #694, #809, #1280 ) ;
#281 = VECTOR ( 'NONE', #594, 1000.000000000000000 ) ;
#282 = EDGE_LOOP ( 'NONE', ( #45, #122, #142, #521 ) ) ;
#283 = CARTESIAN_POINT ( 'NONE',  ( 1.000000000000000000, 1.449999999999999956, -0.5749999999999998446 ) ) ;
#284 = DIRECTION ( 'NONE',  ( 0.000000000000000000, 0.000000000000000000, 1.000000000000000000 ) ) ;
#285 = CLOSED_SHELL ( 'NONE', ( #1068, #1127, #479, #1168, #247, #169, #1039, #23, #531, #709, #507, #665, #385, #179, #1073, #58, #777, #337 ) ) ;
#286 = ORIENTED_EDGE ( 'NONE', *, *, #112, .F. ) ;
#287 = DIRECTION ( 'NONE',  ( 1.734723475976807587E-16, -0.000000000000000000, -1.000000000000000000 ) ) ;
#288 = EDGE_CURVE ( 'NONE', #236, #274, #406, .T. ) ;
#289 = ORIENTED_EDGE ( 'NONE', *, *, #703, .F. ) ;
#290 = CARTESIAN_POINT ( 'NONE',  ( 0.4999999999999997780, 1.399999999999999911, -0.6249999999999998890 ) ) ;
#291 = VECTOR ( 'NONE', #210, 1000.000000000000000 ) ;
#292 = VERTEX_POINT ( 'NONE', #812 ) ;
#293 = DIRECTION ( 'NONE',  ( 8.673617379884037937E-17, -0.000000000000000000, 1.000000000000000000 ) ) ;
#294 = AXIS2_PLACEMENT_3D ( 'NONE', #1082, #130, #922 ) ;
#295 = EDGE_LOOP ( 'NONE', ( #286, #1162, #1232, #394 ) ) ;
#296 = CYLINDRICAL_SURFACE ( 'NONE', #1013, 0.05000000000000002359 ) ;
#297 = AXIS2_PLACEMENT_3D ( 'NONE', #653, #272, #572 ) ;
#298 = DIRECTION ( 'NONE',  ( 1.000000000000000000, -0.000000000000000000, 0.000000000000000000 ) ) ;
#299 = DIRECTION ( 'NONE',  ( -1.000000000000000000, 0.000000000000000000, 0.000000000000000000 ) ) ;
#300 = EDGE_CURVE ( 'NONE', #1147, #167, #330, .T. ) ;
#301 = AXIS2_PLACEMENT_3D ( 'NONE', #749, #147, #558 ) ;
#302 = EDGE_CURVE ( 'NONE', #401, #259, #1242, .T. ) ;
#303 = ORIENTED_EDGE ( 'NONE', *, *, #407, .F. ) ;
#304 = CARTESIAN_POINT ( 'NONE',  ( 0.4999999999999995559, 0.04999999999999991257, 0.6249999999999996669 ) ) ;
#305 = AXIS2_PLACEMENT_3D ( 'NONE', #732, #149, #724 ) ;
#306 = UNCERTAINTY_MEASURE_WITH_UNIT (LENGTH_MEASURE( 1.000000000000000082E-05 ), #174, 'distance_accuracy_value', 'NONE');
#307 = DIRECTION ( 'NONE',  ( 0.000000000000000000, -1.000000000000000000, 0.000000000000000000 ) ) ;
#308 = CARTESIAN_POINT ( 'NONE',  ( 1.000000000000000000, 1.449999999999999956, -0.5749999999999998446 ) ) ;
#309 = PLANE ( 'NONE',  #695 ) ;
#310 = EDGE_CURVE ( 'NONE', #495, #778, #902, .T. ) ;
#311 = VERTEX_POINT ( 'NONE', #192 ) ;
#312 = CARTESIAN_POINT ( 'NONE',  ( 0.9499999999999995115, 1.449999999999999956, 0.5749999999999996225 ) ) ;
#313 = LINE ( 'NONE', #414, #925 ) ;
#314 = SPHERICAL_SURFACE ( 'NONE', #56, 0.05000000000000000278 ) ;
#315 = PRODUCT ( 'KEMET_X7R_C0805CDH', 'KEMET_X7R_C0805CDH', '', ( #677 ) ) ;
#316 = CARTESIAN_POINT ( 'NONE',  ( -0.9499999999999999556, 0.04999999999999991257, -0.5749999999999998446 ) ) ;
#317 = DIRECTION ( 'NONE',  ( 0.000000000000000000, 0.000000000000000000, -1.000000000000000000 ) ) ;
#318 = EDGE_LOOP ( 'NONE', ( #800, #1174, #1206, #1171 ) ) ;
#319 = DIRECTION ( 'NONE',  ( -3.469446951953614682E-16, 0.000000000000000000, 1.000000000000000000 ) ) ;
#320 = CARTESIAN_POINT ( 'NONE',  ( 0.9999999999999995559, 1.399999999999999911, 0.6249999999999996669 ) ) ;
#321 = LINE ( 'NONE', #810, #1123 ) ;
#322 = PLANE ( 'NONE',  #1112 ) ;
#323 = CARTESIAN_POINT ( 'NONE',  ( 0.4999999999881765689, 1.433333333333333348, -0.5749999999999997335 ) ) ;
#324 = CIRCLE ( 'NONE', #908, 0.05000000000000002359 ) ;
#325 = CARTESIAN_POINT ( 'NONE',  ( 0.4999999999999997780, 0.000000000000000000, -0.6249999999999998890 ) ) ;
#326 = EDGE_LOOP ( 'NONE', ( #673, #339, #1128, #1041 ) ) ;
#327 = FACE_OUTER_BOUND ( 'NONE', #177, .T. ) ;
#328 = DIRECTION ( 'NONE',  ( 0.000000000000000000, 0.000000000000000000, 1.000000000000000000 ) ) ;
#329 = DIRECTION ( 'NONE',  ( -1.000000000000000000, 0.000000000000000000, 8.673617379884037937E-17 ) ) ;
#330 = LINE ( 'NONE', #1118, #1265 ) ;
#331 = AXIS2_PLACEMENT_3D ( 'NONE', #541, #713, #1126 ) ;
#332 = DIRECTION ( 'NONE',  ( 0.000000000000000000, 0.000000000000000000, 1.000000000000000000 ) ) ;
#333 = VERTEX_POINT ( 'NONE', #1263 ) ;
#334 = CARTESIAN_POINT ( 'NONE',  ( -0.4999999999999995559, 1.399999999999999911, 0.5749999999999996225 ) ) ;
#335 = EDGE_CURVE ( 'NONE', #555, #259, #883, .T. ) ;
#336 = DIRECTION ( 'NONE',  ( 0.000000000000000000, 0.000000000000000000, 1.000000000000000000 ) ) ;
#337 = ADVANCED_FACE ( 'NONE', ( #386 ), #784, .T. ) ;
#338 = DIRECTION ( 'NONE',  ( -1.000000000000000000, 0.000000000000000000, 3.469446951953615668E-16 ) ) ;
#339 = ORIENTED_EDGE ( 'NONE', *, *, #854, .T. ) ;
#340 = CARTESIAN_POINT ( 'NONE',  ( 0.4999999999999997780, 0.04999999999999991257, -0.6249999999999998890 ) ) ;
#341 = DIRECTION ( 'NONE',  ( -1.000000000000000000, 0.000000000000000000, 0.000000000000000000 ) ) ;
#342 = ORIENTED_EDGE ( 'NONE', *, *, #266, .T. ) ;
#343 = EDGE_CURVE ( 'NONE', #771, #884, #592, .T. ) ;
#344 = ORIENTED_EDGE ( 'NONE', *, *, #872, .F. ) ;
#345 = FILL_AREA_STYLE_COLOUR ( '', #182 ) ;
#346 = EDGE_CURVE ( 'NONE', #163, #173, #1145, .T. ) ;
#347 = DIRECTION ( 'NONE',  ( 1.000000000000000000, 0.000000000000000000, 0.000000000000000000 ) ) ;
#348 = DIRECTION ( 'NONE',  ( 1.000000000000000000, 0.000000000000000000, -8.673617379884036705E-17 ) ) ;
#349 = AXIS2_PLACEMENT_3D ( 'NONE', #334, #937, #39 ) ;
#350 = DIRECTION ( 'NONE',  ( -3.469446951953614682E-16, 0.000000000000000000, 1.000000000000000000 ) ) ;
#351 = ORIENTED_EDGE ( 'NONE', *, *, #726, .T. ) ;
#352 = ORIENTED_EDGE ( 'NONE', *, *, #955, .T. ) ;
#353 = DIRECTION ( 'NONE',  ( 0.000000000000000000, -0.000000000000000000, 1.000000000000000000 ) ) ;
#354 = CARTESIAN_POINT ( 'NONE',  ( 0.000000000000000000, 0.000000000000000000, -0.5749999999999998446 ) ) ;
#355 = DIRECTION ( 'NONE',  ( -1.000000000000000000, 0.000000000000000000, 0.000000000000000000 ) ) ;
#356 = DIRECTION ( 'NONE',  ( 1.734723475976807341E-16, 0.000000000000000000, 1.000000000000000000 ) ) ;
#357 = ORIENTED_EDGE ( 'NONE', *, *, #519, .T. ) ;
#358 = CARTESIAN_POINT ( 'NONE',  ( -0.4999999999999996669, 0.04999999999999991257, 0.6083333333333331705 ) ) ;
#359 = AXIS2_PLACEMENT_3D ( 'NONE', #764, #148, #353 ) ;
#360 = ORIENTED_EDGE ( 'NONE', *, *, #675, .F. ) ;
#361 = DIRECTION ( 'NONE',  ( 1.000000000000000000, -0.000000000000000000, -1.734723475976807341E-16 ) ) ;
#362 = LINE ( 'NONE', #354, #50 ) ;
#363 = ADVANCED_FACE ( 'NONE', ( #684 ), #690, .T. ) ;
#364 = LINE ( 'NONE', #189, #683 ) ;
#365 = ORIENTED_EDGE ( 'NONE', *, *, #75, .F. ) ;
#366 = CYLINDRICAL_SURFACE ( 'NONE', #807, 0.03333333333333334675 ) ;
#367 = CIRCLE ( 'NONE', #219, 0.03333333333333334675 ) ;
#368 = ORIENTED_EDGE ( 'NONE', *, *, #867, .F. ) ;
#369 = CARTESIAN_POINT ( 'NONE',  ( 0.9999999999999995559, 0.04999999999999991257, 0.5749999999999996225 ) ) ;
#370 = EDGE_LOOP ( 'NONE', ( #657, #916, #1121, #3, #586, #387, #19, #449 ) ) ;
#371 = CARTESIAN_POINT ( 'NONE',  ( 1.000000000000000000, 1.449999999999999956, -0.6249999999999998890 ) ) ;
#372 = EDGE_CURVE ( 'NONE', #86, #748, #718, .T. ) ;
#373 = DIRECTION ( 'NONE',  ( 1.000000000000000000, 0.000000000000000000, 1.734723475976807341E-16 ) ) ;
#374 = EDGE_CURVE ( 'NONE', #991, #1227, #213, .T. ) ;
#375 = ORIENTED_EDGE ( 'NONE', *, *, #828, .T. ) ;
#376 = SURFACE_STYLE_USAGE ( .BOTH. , #682 ) ;
#377 = ORIENTED_EDGE ( 'NONE', *, *, #84, .T. ) ;
#378 = DIRECTION ( 'NONE',  ( 1.000000000000000000, 0.000000000000000000, 1.734723475976807341E-16 ) ) ;
#379 = AXIS2_PLACEMENT_3D ( 'NONE', #911, #836, #6 ) ;
#380 = DIRECTION ( 'NONE',  ( -3.469446951953614682E-16, 0.000000000000000000, 1.000000000000000000 ) ) ;
#381 = VERTEX_POINT ( 'NONE', #735 ) ;
#382 = CIRCLE ( 'NONE', #616, 0.05000000000000002359 ) ;
#383 = EDGE_LOOP ( 'NONE', ( #844, #1047, #490, #73 ) ) ;
#384 = LINE ( 'NONE', #277, #1273 ) ;
#385 = ADVANCED_FACE ( 'NONE', ( #1120 ), #137, .T. ) ;
#386 = FACE_OUTER_BOUND ( 'NONE', #876, .T. ) ;
#387 = ORIENTED_EDGE ( 'NONE', *, *, #996, .T. ) ;
#388 = CARTESIAN_POINT ( 'NONE',  ( 0.4999999999999997780, 1.449999999999999956, -0.6249999999999998890 ) ) ;
#389 = AXIS2_PLACEMENT_3D ( 'NONE', #312, #917, #513 ) ;
#390 = EDGE_CURVE ( 'NONE', #269, #89, #239, .T. ) ;
#391 = DIRECTION ( 'NONE',  ( -1.000000000000000000, -0.000000000000000000, -0.000000000000000000 ) ) ;
#392 = ORIENTED_EDGE ( 'NONE', *, *, #734, .T. ) ;
#393 = DIRECTION ( 'NONE',  ( 0.000000000000000000, -1.000000000000000000, 0.000000000000000000 ) ) ;
#394 = ORIENTED_EDGE ( 'NONE', *, *, #947, .F. ) ;
#395 = CARTESIAN_POINT ( 'NONE',  ( 0.4999999999881765689, 0.01666666666666662133, 0.5749999999999998446 ) ) ;
#396 = EDGE_CURVE ( 'NONE', #900, #401, #843, .T. ) ;
#397 = ORIENTED_EDGE ( 'NONE', *, *, #903, .F. ) ;
#398 = PLANE ( 'NONE',  #1187 ) ;
#399 = VECTOR ( 'NONE', #831, 1000.000000000000000 ) ;
#400 = EDGE_CURVE ( 'NONE', #86, #252, #946, .T. ) ;
#401 = VERTEX_POINT ( 'NONE', #552 ) ;
#402 = CARTESIAN_POINT ( 'NONE',  ( -1.000000000000000000, 0.04999999999999991257, -0.5749999999999998446 ) ) ;
#403 = CIRCLE ( 'NONE', #745, 0.05000000000000002359 ) ;
#404 = DIRECTION ( 'NONE',  ( 0.000000000000000000, 0.000000000000000000, -1.000000000000000000 ) ) ;
#405 = LINE ( 'NONE', #388, #976 ) ;
#406 = LINE ( 'NONE', #1213, #399 ) ;
#407 = EDGE_CURVE ( 'NONE', #705, #86, #133, .T. ) ;
#408 = ORIENTED_EDGE ( 'NONE', *, *, #1031, .T. ) ;
#409 = CARTESIAN_POINT ( 'NONE',  ( 0.4999999999881765689, 0.01666666666666666644, -0.5749999999999996225 ) ) ;
#410 = EDGE_LOOP ( 'NONE', ( #607, #472, #614, #106 ) ) ;
#411 = FACE_OUTER_BOUND ( 'NONE', #723, .T. ) ;
#412 = ORIENTED_EDGE ( 'NONE', *, *, #891, .F. ) ;
#413 = FACE_OUTER_BOUND ( 'NONE', #318, .T. ) ;
#414 = CARTESIAN_POINT ( 'NONE',  ( 0.9499999999999995115, 1.449999999999999956, 0.6249999999999996669 ) ) ;
#415 = CARTESIAN_POINT ( 'NONE',  ( 0.4999999999999995559, 0.000000000000000000, 0.5749999999999997335 ) ) ;
#416 = LINE ( 'NONE', #8, #980 ) ;
#417 = VECTOR ( 'NONE', #186, 1000.000000000000000 ) ;
#418 = AXIS2_PLACEMENT_3D ( 'NONE', #532, #13, #328 ) ;
#419 = DIRECTION ( 'NONE',  ( -1.000000000000000000, 0.000000000000000000, -0.000000000000000000 ) ) ;
#420 = ORIENTED_EDGE ( 'NONE', *, *, #1111, .T. ) ;
#421 = DIRECTION ( 'NONE',  ( 0.000000000000000000, 1.000000000000000000, 0.000000000000000000 ) ) ;
#422 = CARTESIAN_POINT ( 'NONE',  ( 0.4999999999881765689, 1.399999999999999911, -0.5749999999999997335 ) ) ;
#423 = PRODUCT_DEFINITION_CONTEXT ( 'detailed design', #1079, 'design' ) ;
#424 = DIRECTION ( 'NONE',  ( 1.000000000000000000, 0.000000000000000000, 1.734723475976807341E-16 ) ) ;
#425 = DIRECTION ( 'NONE',  ( 1.000000000000000000, 0.000000000000000000, 0.000000000000000000 ) ) ;
#426 = STYLED_ITEM ( 'NONE', ( #881 ), #551 ) ;
#427 = EDGE_CURVE ( 'NONE', #762, #991, #511, .T. ) ;
#428 = DIRECTION ( 'NONE',  ( 0.000000000000000000, 0.000000000000000000, 1.000000000000000000 ) ) ;
#429 = EDGE_CURVE ( 'NONE', #495, #795, #1199, .T. ) ;
#430 = VECTOR ( 'NONE', #783, 1000.000000000000000 ) ;
#431 = ORIENTED_EDGE ( 'NONE', *, *, #34, .F. ) ;
#432 = DIRECTION ( 'NONE',  ( 1.000000000000000000, 0.000000000000000000, -8.673617379884036705E-17 ) ) ;
#433 = CARTESIAN_POINT ( 'NONE',  ( 0.4999999999881765689, 1.399999999999999911, -0.6083333333333331705 ) ) ;
#434 = FACE_OUTER_BOUND ( 'NONE', #1133, .T. ) ;
#435 = CARTESIAN_POINT ( 'NONE',  ( -0.9499999999999997335, 1.399999999999999911, 3.295974604355932986E-16 ) ) ;
#436 = ORIENTED_EDGE ( 'NONE', *, *, #867, .T. ) ;
#437 = CARTESIAN_POINT ( 'NONE',  ( 0.9499999999999999556, 0.000000000000000000, -0.5749999999999998446 ) ) ;
#438 = CARTESIAN_POINT ( 'NONE',  ( -0.9499999999999999556, 1.399999999999999911, -0.6249999999999998890 ) ) ;
#439 = EDGE_CURVE ( 'NONE', #789, #495, #716, .T. ) ;
#440 = ORIENTED_EDGE ( 'NONE', *, *, #172, .F. ) ;
#441 = ADVANCED_FACE ( 'NONE', ( #411 ), #24, .T. ) ;
#442 = VECTOR ( 'NONE', #728, 1000.000000000000000 ) ;
#443 = EDGE_LOOP ( 'NONE', ( #593, #229, #994, #965 ) ) ;
#444 = SURFACE_STYLE_FILL_AREA ( #565 ) ;
#445 = CARTESIAN_POINT ( 'NONE',  ( -0.9499999999999995115, 0.04999999999999991257, 0.6249999999999996669 ) ) ;
#446 = CARTESIAN_POINT ( 'NONE',  ( -0.4999999999999997780, 1.399999999999999911, -0.6249999999999998890 ) ) ;
#447 = ORIENTED_EDGE ( 'NONE', *, *, #1258, .F. ) ;
#448 = VECTOR ( 'NONE', #262, 1000.000000000000000 ) ;
#449 = ORIENTED_EDGE ( 'NONE', *, *, #407, .T. ) ;
#450 = VECTOR ( 'NONE', #634, 1000.000000000000000 ) ;
#451 = CARTESIAN_POINT ( 'NONE',  ( 500000.0000000000582, 0.01666666666666666644, -0.5750000000433677094 ) ) ;
#452 = DIRECTION ( 'NONE',  ( 0.000000000000000000, 0.000000000000000000, -1.000000000000000000 ) ) ;
#453 = DIRECTION ( 'NONE',  ( -1.000000000000000000, 0.000000000000000000, 0.000000000000000000 ) ) ;
#454 = ORIENTED_EDGE ( 'NONE', *, *, #427, .F. ) ;
#455 = DIRECTION ( 'NONE',  ( 0.000000000000000000, 0.000000000000000000, -1.000000000000000000 ) ) ;
#456 = CIRCLE ( 'NONE', #143, 0.05000000000000002359 ) ;
#457 = EDGE_CURVE ( 'NONE', #333, #163, #220, .T. ) ;
#458 = VERTEX_POINT ( 'NONE', #61 ) ;
#459 = CARTESIAN_POINT ( 'NONE',  ( 0.4999999999999997780, 1.449999999999999956, -0.6249999999999998890 ) ) ;
#460 = DIRECTION ( 'NONE',  ( 1.000000000000000000, -0.000000000000000000, -0.000000000000000000 ) ) ;
#461 = PLANE ( 'NONE',  #508 ) ;
#462 = ORIENTED_EDGE ( 'NONE', *, *, #717, .F. ) ;
#463 = AXIS2_PLACEMENT_3D ( 'NONE', #546, #1037, #540 ) ;
#464 = ORIENTED_EDGE ( 'NONE', *, *, #1115, .T. ) ;
#465 = CARTESIAN_POINT ( 'NONE',  ( 0.4999999999999997780, 1.449999999999999956, -0.5749999999999998446 ) ) ;
#466 = ORIENTED_EDGE ( 'NONE', *, *, #872, .T. ) ;
#467 = FILL_AREA_STYLE_COLOUR ( '', #487 ) ;
#468 = AXIS2_PLACEMENT_3D ( 'NONE', #1194, #393, #188 ) ;
#469 = VECTOR ( 'NONE', #856, 1000.000000000000000 ) ;
#470 = ORIENTED_EDGE ( 'NONE', *, *, #390, .F. ) ;
#471 = CARTESIAN_POINT ( 'NONE',  ( 0.4999999999999995559, 1.399999999999999911, 0.6249999999999996669 ) ) ;
#472 = ORIENTED_EDGE ( 'NONE', *, *, #276, .F. ) ;
#473 = ORIENTED_EDGE ( 'NONE', *, *, #632, .T. ) ;
#474 = DIRECTION ( 'NONE',  ( -1.000000000000000000, 0.000000000000000000, 0.000000000000000000 ) ) ;
#475 = DIRECTION ( 'NONE',  ( 0.000000000000000000, -1.000000000000000000, 0.000000000000000000 ) ) ;
#476 = VERTEX_POINT ( 'NONE', #959 ) ;
#477 =( NAMED_UNIT ( * ) SI_UNIT ( $, .STERADIAN. ) SOLID_ANGLE_UNIT ( ) );
#478 = EDGE_CURVE ( 'NONE', #1139, #1028, #1230, .T. ) ;
#479 = ADVANCED_FACE ( 'NONE', ( #249 ), #461, .F. ) ;
#480 = DIRECTION ( 'NONE',  ( 0.000000000000000000, 0.000000000000000000, -1.000000000000000000 ) ) ;
#481 = AXIS2_PLACEMENT_3D ( 'NONE', #435, #1221, #338 ) ;
#482 = DIRECTION ( 'NONE',  ( -1.000000000000000000, -0.000000000000000000, -0.000000000000000000 ) ) ;
#483 = VECTOR ( 'NONE', #1042, 1000.000000000000000 ) ;
#484 = ORIENTED_EDGE ( 'NONE', *, *, #907, .F. ) ;
#485 = DIRECTION ( 'NONE',  ( 0.000000000000000000, 0.000000000000000000, 1.000000000000000000 ) ) ;
#486 = FACE_OUTER_BOUND ( 'NONE', #410, .T. ) ;
#487 = COLOUR_RGB ( '',0.7921568627450980005, 0.8196078431372548767, 0.9333333333333333481 ) ;
#488 = LINE ( 'NONE', #290, #934 ) ;
#489 = CARTESIAN_POINT ( 'NONE',  ( -0.9499999999999995115, 0.05000000000000000278, 0.5749999999999996225 ) ) ;
#490 = ORIENTED_EDGE ( 'NONE', *, *, #1091, .T. ) ;
#491 = LINE ( 'NONE', #587, #752 ) ;
#492 = CIRCLE ( 'NONE', #94, 0.05000000000000002359 ) ;
#493 = AXIS2_PLACEMENT_3D ( 'NONE', #1088, #606, #485 ) ;
#494 = EDGE_CURVE ( 'NONE', #458, #401, #971, .T. ) ;
#495 = VERTEX_POINT ( 'NONE', #758 ) ;
#496 = CARTESIAN_POINT ( 'NONE',  ( 0.000000000000000000, 1.399999999999999911, 0.5749999999999996225 ) ) ;
#497 = ORIENTED_EDGE ( 'NONE', *, *, #266, .F. ) ;
#498 = FACE_OUTER_BOUND ( 'NONE', #114, .T. ) ;
#499 = EDGE_LOOP ( 'NONE', ( #874, #264, #198, #529 ) ) ;
#500 = CARTESIAN_POINT ( 'NONE',  ( -0.4999999999999997780, 0.000000000000000000, -0.6249999999999998890 ) ) ;
#501 = ADVANCED_FACE ( 'NONE', ( #753 ), #1052, .T. ) ;
#502 = PLANE ( 'NONE',  #967 ) ;
#503 = CARTESIAN_POINT ( 'NONE',  ( -0.9499999999999995115, 0.04999999999999991257, 0.5749999999999996225 ) ) ;
#504 = DIRECTION ( 'NONE',  ( 0.000000000000000000, 1.000000000000000000, 0.000000000000000000 ) ) ;
#505 = ORIENTED_EDGE ( 'NONE', *, *, #1091, .F. ) ;
#506 = PLANE ( 'NONE',  #536 ) ;
#507 = ADVANCED_FACE ( 'NONE', ( #889 ), #679, .T. ) ;
#508 = AXIS2_PLACEMENT_3D ( 'NONE', #256, #862, #356 ) ;
#509 = SPHERICAL_SURFACE ( 'NONE', #1046, 0.05000000000000000278 ) ;
#510 = FACE_OUTER_BOUND ( 'NONE', #564, .T. ) ;
#511 = LINE ( 'NONE', #325, #1267 ) ;
#512 = ORIENTED_EDGE ( 'NONE', *, *, #627, .F. ) ;
#513 = DIRECTION ( 'NONE',  ( 0.000000000000000000, 0.000000000000000000, -1.000000000000000000 ) ) ;
#514 = CIRCLE ( 'NONE', #331, 0.05000000000000002359 ) ;
#515 = FACE_OUTER_BOUND ( 'NONE', #774, .T. ) ;
#516 = LINE ( 'NONE', #243, #183 ) ;
#517 = CARTESIAN_POINT ( 'NONE',  ( -0.4999999999999995559, 1.399999999999999911, 0.6249999999999996669 ) ) ;
#518 = CARTESIAN_POINT ( 'NONE',  ( 0.9999999999999995559, 0.04999999999999991257, 0.5749999999999996225 ) ) ;
#519 = EDGE_CURVE ( 'NONE', #1028, #762, #382, .T. ) ;
#520 = EDGE_CURVE ( 'NONE', #795, #778, #324, .T. ) ;
#521 = ORIENTED_EDGE ( 'NONE', *, *, #637, .F. ) ;
#522 = DIRECTION ( 'NONE',  ( -1.000000000000000000, 0.000000000000000000, 0.000000000000000000 ) ) ;
#523 = CARTESIAN_POINT ( 'NONE',  ( 0.9499999999999995115, 1.399999999999999911, 0.5749999999999996225 ) ) ;
#524 = DIRECTION ( 'NONE',  ( -0.000000000000000000, 1.000000000000000000, -0.000000000000000000 ) ) ;
#525 = DIRECTION ( 'NONE',  ( 0.000000000000000000, 0.000000000000000000, -1.000000000000000000 ) ) ;
#526 = AXIS2_PLACEMENT_3D ( 'NONE', #1108, #1011, #124 ) ;
#527 = EDGE_CURVE ( 'NONE', #778, #804, #364, .T. ) ;
#528 = CARTESIAN_POINT ( 'NONE',  ( 500000.0000000000582, 1.399999999999999911, -0.6083333333767012574 ) ) ;
#529 = ORIENTED_EDGE ( 'NONE', *, *, #34, .T. ) ;
#530 = CARTESIAN_POINT ( 'NONE',  ( -0.9499999999999999556, 0.04999999999999991257, -0.5749999999999998446 ) ) ;
#531 = ADVANCED_FACE ( 'NONE', ( #486 ), #975, .T. ) ;
#532 = CARTESIAN_POINT ( 'NONE',  ( 0.9499999999999999556, 0.04999999999999991257, -0.5749999999999998446 ) ) ;
#533 = FACE_OUTER_BOUND ( 'NONE', #201, .T. ) ;
#534 = STYLED_ITEM ( 'NONE', ( #265 ), #548 ) ;
#535 = VECTOR ( 'NONE', #779, 1000.000000000000000 ) ;
#536 = AXIS2_PLACEMENT_3D ( 'NONE', #737, #1107, #711 ) ;
#537 = VERTEX_POINT ( 'NONE', #1148 ) ;
#538 = FACE_OUTER_BOUND ( 'NONE', #754, .T. ) ;
#539 = ADVANCED_FACE ( 'NONE', ( #1061 ), #168, .T. ) ;
#540 = DIRECTION ( 'NONE',  ( 0.000000000000000000, 0.000000000000000000, 1.000000000000000000 ) ) ;
#541 = CARTESIAN_POINT ( 'NONE',  ( 0.9499999999999999556, 1.399999999999999911, -0.5749999999999998446 ) ) ;
#542 = ADVANCED_FACE ( 'NONE', ( #562 ), #181, .F. ) ;
#543 = ORIENTED_EDGE ( 'NONE', *, *, #390, .T. ) ;
#544 = EDGE_LOOP ( 'NONE', ( #547, #686, #368, #1239 ) ) ;
#545 = APPLICATION_PROTOCOL_DEFINITION ( 'draft international standard', 'automotive_design', 1998, #1079 ) ;
#546 = CARTESIAN_POINT ( 'NONE',  ( 0.4999999999999995559, 1.399999999999999911, 0.5749999999999996225 ) ) ;
#547 = ORIENTED_EDGE ( 'NONE', *, *, #28, .F. ) ;
#548 = MANIFOLD_SOLID_BREP ( 'Fillet1', #285 ) ;
#549 = VERTEX_POINT ( 'NONE', #1257 ) ;
#550 = VECTOR ( 'NONE', #121, 1000.000000000000000 ) ;
#551 = MANIFOLD_SOLID_BREP ( 'Boss-Extrude2', #780 ) ;
#552 = CARTESIAN_POINT ( 'NONE',  ( 0.9499999999999995115, 1.399999999999999911, 0.6249999999999996669 ) ) ;
#553 = FACE_OUTER_BOUND ( 'NONE', #49, .T. ) ;
#554 = CARTESIAN_POINT ( 'NONE',  ( -0.9999999999999995559, 1.399999999999999911, 0.6249999999999996669 ) ) ;
#555 = VERTEX_POINT ( 'NONE', #786 ) ;
#556 = AXIS2_PLACEMENT_3D ( 'NONE', #573, #67, #1249 ) ;
#557 = ORIENTED_EDGE ( 'NONE', *, *, #374, .T. ) ;
#558 = DIRECTION ( 'NONE',  ( 1.000000000000000000, 0.000000000000000000, 0.000000000000000000 ) ) ;
#559 = VECTOR ( 'NONE', #1122, 1000.000000000000000 ) ;
#560 = CARTESIAN_POINT ( 'NONE',  ( 0.9499999999999999556, 1.399999999999999911, -0.5749999999999998446 ) ) ;
#561 = ORIENTED_EDGE ( 'NONE', *, *, #1177, .F. ) ;
#562 = FACE_OUTER_BOUND ( 'NONE', #923, .T. ) ;
#563 = AXIS2_PLACEMENT_3D ( 'NONE', #238, #1218, #830 ) ;
#564 = EDGE_LOOP ( 'NONE', ( #936, #1231, #661 ) ) ;
#565 = FILL_AREA_STYLE ('',( #345 ) ) ;
#566 = DIRECTION ( 'NONE',  ( -1.000000000000000000, -0.000000000000000000, 8.673617379884036705E-17 ) ) ;
#567 = CARTESIAN_POINT ( 'NONE',  ( -0.4999999999999997780, 1.449999999999999956, -0.5749999999999998446 ) ) ;
#568 = VERTEX_POINT ( 'NONE', #358 ) ;
#569 = EDGE_CURVE ( 'NONE', #1256, #705, #367, .T. ) ;
#570 = SURFACE_STYLE_USAGE ( .BOTH. , #1150 ) ;
#571 = AXIS2_PLACEMENT_3D ( 'NONE', #459, #66, #111 ) ;
#572 = DIRECTION ( 'NONE',  ( -1.000000000000000000, 0.000000000000000000, 0.000000000000000000 ) ) ;
#573 = CARTESIAN_POINT ( 'NONE',  ( -0.9499999999999995115, 0.05000000000000000278, 0.5749999999999996225 ) ) ;
#574 = EDGE_CURVE ( 'NONE', #1139, #880, #1247, .T. ) ;
#575 = VERTEX_POINT ( 'NONE', #663 ) ;
#576 = CARTESIAN_POINT ( 'NONE',  ( 0.4999999999881765689, 1.399999999999999911, 0.5749999999999997335 ) ) ;
#577 = ADVANCED_FACE ( 'NONE', ( #1245 ), #366, .T. ) ;
#578 = AXIS2_PLACEMENT_3D ( 'NONE', #605, #378, #4 ) ;
#579 = ORIENTED_EDGE ( 'NONE', *, *, #622, .T. ) ;
#580 = FILL_AREA_STYLE ('',( #270 ) ) ;
#581 = EDGE_CURVE ( 'NONE', #173, #1032, #1027, .T. ) ;
#582 = AXIS2_PLACEMENT_3D ( 'NONE', #846, #233, #1104 ) ;
#583 = CARTESIAN_POINT ( 'NONE',  ( -0.4999999999999997780, 0.000000000000000000, -0.5749999999999998446 ) ) ;
#584 = DIRECTION ( 'NONE',  ( 1.000000000000000000, 0.000000000000000000, 1.734723475976807341E-16 ) ) ;
#585 = CARTESIAN_POINT ( 'NONE',  ( -0.9499999999999999556, 1.399999999999999911, -0.5749999999999998446 ) ) ;
#586 = ORIENTED_EDGE ( 'NONE', *, *, #16, .T. ) ;
#587 = CARTESIAN_POINT ( 'NONE',  ( 500000.0000000000582, 1.433333333333333348, -0.5750000000433678204 ) ) ;
#588 = DIRECTION ( 'NONE',  ( 1.000000000000000000, -0.000000000000000000, -0.000000000000000000 ) ) ;
#589 = CIRCLE ( 'NONE', #25, 0.05000000000000002359 ) ;
#590 = ORIENTED_EDGE ( 'NONE', *, *, #79, .F. ) ;
#591 = DIRECTION ( 'NONE',  ( 0.000000000000000000, 0.000000000000000000, 1.000000000000000000 ) ) ;
#592 = LINE ( 'NONE', #1173, #417 ) ;
#593 = ORIENTED_EDGE ( 'NONE', *, *, #768, .T. ) ;
#594 = DIRECTION ( 'NONE',  ( 0.000000000000000000, 0.000000000000000000, -1.000000000000000000 ) ) ;
#595 = ADVANCED_FACE ( 'NONE', ( #199 ), #398, .F. ) ;
#596 = AXIS2_PLACEMENT_3D ( 'NONE', #560, #973, #81 ) ;
#597 = CIRCLE ( 'NONE', #9, 0.03333333333333334675 ) ;
#598 = ORIENTED_EDGE ( 'NONE', *, *, #16, .F. ) ;
#599 = CARTESIAN_POINT ( 'NONE',  ( 1.000000000000000000, 1.399999999999999911, -0.6249999999999998890 ) ) ;
#600 = EDGE_LOOP ( 'NONE', ( #986, #97, #699, #342 ) ) ;
#601 = DIRECTION ( 'NONE',  ( 0.000000000000000000, 0.000000000000000000, -1.000000000000000000 ) ) ;
#602 = AXIS2_PLACEMENT_3D ( 'NONE', #1100, #702, #1190 ) ;
#603 = EDGE_CURVE ( 'NONE', #1003, #222, #403, .T. ) ;
#604 = ORIENTED_EDGE ( 'NONE', *, *, #581, .T. ) ;
#605 = CARTESIAN_POINT ( 'NONE',  ( 0.4999999999999997780, 1.399999999999999911, -0.5749999999999998446 ) ) ;
#606 = DIRECTION ( 'NONE',  ( -1.000000000000000000, -0.000000000000000000, 8.673617379884036705E-17 ) ) ;
#607 = ORIENTED_EDGE ( 'NONE', *, *, #640, .F. ) ;
#608 = DIRECTION ( 'NONE',  ( -1.000000000000000000, -0.000000000000000000, 8.673617379884036705E-17 ) ) ;
#609 = AXIS2_PLACEMENT_3D ( 'NONE', #216, #424, #817 ) ;
#610 = LINE ( 'NONE', #1210, #655 ) ;
#611 = DIRECTION ( 'NONE',  ( 0.000000000000000000, 1.000000000000000000, 0.000000000000000000 ) ) ;
#612 = ADVANCED_FACE ( 'NONE', ( #498 ), #1179, .F. ) ;
#613 = VECTOR ( 'NONE', #1235, 1000.000000000000000 ) ;
#614 = ORIENTED_EDGE ( 'NONE', *, *, #346, .F. ) ;
#615 = CARTESIAN_POINT ( 'NONE',  ( -0.4999999999999996669, 1.399999999999999911, -0.5749999999999997335 ) ) ;
#616 = AXIS2_PLACEMENT_3D ( 'NONE', #1262, #584, #773 ) ;
#617 = ADVANCED_FACE ( 'NONE', ( #687 ), #697, .T. ) ;
#618 = FACE_OUTER_BOUND ( 'NONE', #741, .T. ) ;
#619 = LINE ( 'NONE', #1012, #1204 ) ;
#620 = LINE ( 'NONE', #928, #802 ) ;
#621 = VECTOR ( 'NONE', #608, 1000.000000000000000 ) ;
#622 = EDGE_CURVE ( 'NONE', #163, #1032, #456, .T. ) ;
#623 = ORIENTED_EDGE ( 'NONE', *, *, #429, .F. ) ;
#624 = DIRECTION ( 'NONE',  ( -0.000000000000000000, 1.000000000000000000, -0.000000000000000000 ) ) ;
#625 = AXIS2_PLACEMENT_3D ( 'NONE', #1184, #299, #912 ) ;
#626 = UNCERTAINTY_MEASURE_WITH_UNIT (LENGTH_MEASURE( 1.000000000000000082E-05 ), #246, 'distance_accuracy_value', 'NONE');
#627 = EDGE_CURVE ( 'NONE', #575, #748, #1272, .T. ) ;
#628 = CARTESIAN_POINT ( 'NONE',  ( 500000.0000000000582, 1.433333333333333348, -0.5750000000433678204 ) ) ;
#629 = CARTESIAN_POINT ( 'NONE',  ( 500000.0000000000582, 1.399999999999999911, 0.6083333332899650836 ) ) ;
#630 = CARTESIAN_POINT ( 'NONE',  ( 1.000000000000000000, 1.449999999999999956, -0.6249999999999998890 ) ) ;
#631 = DIRECTION ( 'NONE',  ( 0.000000000000000000, 0.000000000000000000, -1.000000000000000000 ) ) ;
#632 = EDGE_CURVE ( 'NONE', #32, #974, #405, .T. ) ;
#633 = ORIENTED_EDGE ( 'NONE', *, *, #140, .F. ) ;
#634 = DIRECTION ( 'NONE',  ( 3.469446951953614682E-16, -0.000000000000000000, -1.000000000000000000 ) ) ;
#635 = CARTESIAN_POINT ( 'NONE',  ( -0.4999999999999996669, 1.399999999999999911, -0.5749999999999997335 ) ) ;
#636 = DIRECTION ( 'NONE',  ( -1.000000000000000000, 0.000000000000000000, 0.000000000000000000 ) ) ;
#637 = EDGE_CURVE ( 'NONE', #252, #815, #491, .T. ) ;
#638 = ORIENTED_EDGE ( 'NONE', *, *, #1036, .T. ) ;
#639 = CARTESIAN_POINT ( 'NONE',  ( 0.9499999999999995115, 0.04999999999999991257, 0.6249999999999996669 ) ) ;
#640 = EDGE_CURVE ( 'NONE', #89, #333, #1214, .T. ) ;
#641 = DIRECTION ( 'NONE',  ( -1.734723475976807341E-16, 0.000000000000000000, 1.000000000000000000 ) ) ;
#642 = DIRECTION ( 'NONE',  ( 0.000000000000000000, -0.000000000000000000, 1.000000000000000000 ) ) ;
#643 = VECTOR ( 'NONE', #453, 1000.000000000000000 ) ;
#644 = VECTOR ( 'NONE', #875, 1000.000000000000000 ) ;
#645 = AXIS2_PLACEMENT_3D ( 'NONE', #1098, #1004, #107 ) ;
#646 = ORIENTED_EDGE ( 'NONE', *, *, #828, .F. ) ;
#647 = FACE_OUTER_BOUND ( 'NONE', #962, .T. ) ;
#648 = DIRECTION ( 'NONE',  ( -1.000000000000000000, -0.000000000000000000, -0.000000000000000000 ) ) ;
#649 = CYLINDRICAL_SURFACE ( 'NONE', #1255, 0.05000000000000002359 ) ;
#650 = AXIS2_PLACEMENT_3D ( 'NONE', #135, #1211, #943 ) ;
#651 = EDGE_LOOP ( 'NONE', ( #454, #77, #82, #633, #473, #1191, #669, #869 ) ) ;
#652 = ORIENTED_EDGE ( 'NONE', *, *, #1001, .F. ) ;
#653 = CARTESIAN_POINT ( 'NONE',  ( -0.9499999999999999556, 0.05000000000000000278, -0.5749999999999998446 ) ) ;
#654 = ORIENTED_EDGE ( 'NONE', *, *, #849, .F. ) ;
#655 = VECTOR ( 'NONE', #298, 1000.000000000000000 ) ;
#656 = AXIS2_PLACEMENT_3D ( 'NONE', #820, #631, #1020 ) ;
#657 = ORIENTED_EDGE ( 'NONE', *, *, #400, .T. ) ;
#658 =( LENGTH_UNIT ( ) NAMED_UNIT ( * ) SI_UNIT ( .MILLI., .METRE. ) );
#659 = FACE_OUTER_BOUND ( 'NONE', #651, .T. ) ;
#660 = DIRECTION ( 'NONE',  ( 0.000000000000000000, 0.000000000000000000, -1.000000000000000000 ) ) ;
#661 = ORIENTED_EDGE ( 'NONE', *, *, #799, .F. ) ;
#662 = AXIS2_PLACEMENT_3D ( 'NONE', #254, #970, #1241 ) ;
#663 = CARTESIAN_POINT ( 'NONE',  ( -0.4999999999999996669, 0.04999999999999991257, -0.6083333333333331705 ) ) ;
#664 = AXIS2_PLACEMENT_3D ( 'NONE', #518, #1196, #317 ) ;
#665 = ADVANCED_FACE ( 'NONE', ( #1006 ), #898, .T. ) ;
#666 = ORIENTED_EDGE ( 'NONE', *, *, #776, .F. ) ;
#667 = CIRCLE ( 'NONE', #200, 0.05000000000000002359 ) ;
#668 = CARTESIAN_POINT ( 'NONE',  ( -0.9499999999999999556, 0.04999999999999991257, -0.6249999999999998890 ) ) ;
#669 = ORIENTED_EDGE ( 'NONE', *, *, #196, .T. ) ;
#670 = DIRECTION ( 'NONE',  ( 0.000000000000000000, 0.000000000000000000, -1.000000000000000000 ) ) ;
#671 = AXIS2_PLACEMENT_3D ( 'NONE', #1175, #195, #601 ) ;
#672 = LINE ( 'NONE', #678, #469 ) ;
#673 = ORIENTED_EDGE ( 'NONE', *, *, #439, .T. ) ;
#674 = SURFACE_STYLE_FILL_AREA ( #580 ) ;
#675 = EDGE_CURVE ( 'NONE', #1101, #729, #7, .T. ) ;
#676 = CIRCLE ( 'NONE', #981, 0.03333333333333334675 ) ;
#677 = PRODUCT_CONTEXT ( 'NONE', #76, 'mechanical' ) ;
#678 = CARTESIAN_POINT ( 'NONE',  ( -1.000000000000000000, 1.449999999999999956, -0.5749999999999998446 ) ) ;
#679 = SPHERICAL_SURFACE ( 'NONE', #556, 0.05000000000000000278 ) ;
#680 = ADVANCED_FACE ( 'NONE', ( #987 ), #805, .T. ) ;
#681 = ORIENTED_EDGE ( 'NONE', *, *, #99, .F. ) ;
#682 = SURFACE_SIDE_STYLE ('',( #674 ) ) ;
#683 = VECTOR ( 'NONE', #588, 1000.000000000000000 ) ;
#684 = FACE_OUTER_BOUND ( 'NONE', #251, .T. ) ;
#685 = CIRCLE ( 'NONE', #349, 0.05000000000000002359 ) ;
#686 = ORIENTED_EDGE ( 'NONE', *, *, #1030, .T. ) ;
#687 = FACE_OUTER_BOUND ( 'NONE', #1183, .T. ) ;
#688 = ORIENTED_EDGE ( 'NONE', *, *, #258, .F. ) ;
#689 = DIRECTION ( 'NONE',  ( 0.000000000000000000, -1.000000000000000000, -0.000000000000000000 ) ) ;
#690 = CYLINDRICAL_SURFACE ( 'NONE', #294, 0.05000000000000002359 ) ;
#691 = ADVANCED_FACE ( 'NONE', ( #1096 ), #1077, .T. ) ;
#692 = ORIENTED_EDGE ( 'NONE', *, *, #632, .F. ) ;
#693 = DIRECTION ( 'NONE',  ( 1.000000000000000000, 0.000000000000000000, 0.000000000000000000 ) ) ;
#694 = CARTESIAN_POINT ( 'NONE',  ( -1.000000000000000000, 1.449999999999999956, -0.6249999999999998890 ) ) ;
#695 = AXIS2_PLACEMENT_3D ( 'NONE', #920, #504, #1195 ) ;
#696 = EDGE_LOOP ( 'NONE', ( #156, #93, #420, #165 ) ) ;
#697 = CYLINDRICAL_SURFACE ( 'NONE', #493, 0.03333333333333334675 ) ;
#698 = AXIS2_PLACEMENT_3D ( 'NONE', #841, #1225, #341 ) ;
#699 = ORIENTED_EDGE ( 'NONE', *, *, #302, .T. ) ;
#700 = LINE ( 'NONE', #599, #54 ) ;
#701 = ORIENTED_EDGE ( 'NONE', *, *, #520, .T. ) ;
#702 = DIRECTION ( 'NONE',  ( 0.000000000000000000, -1.000000000000000000, 0.000000000000000000 ) ) ;
#703 = EDGE_CURVE ( 'NONE', #974, #555, #811, .T. ) ;
#704 = CIRCLE ( 'NONE', #645, 0.05000000000000002359 ) ;
#705 = VERTEX_POINT ( 'NONE', #211 ) ;
#706 = CARTESIAN_POINT ( 'NONE',  ( 500000.0000000000582, 1.433333333333333348, 0.5749999999566316466 ) ) ;
#707 = SPHERICAL_SURFACE ( 'NONE', #1266, 0.05000000000000000278 ) ;
#708 = DIRECTION ( 'NONE',  ( 1.000000000000000000, 0.000000000000000000, 0.000000000000000000 ) ) ;
#709 = ADVANCED_FACE ( 'NONE', ( #510 ), #314, .T. ) ;
#710 = ORIENTED_EDGE ( 'NONE', *, *, #574, .F. ) ;
#711 = DIRECTION ( 'NONE',  ( -1.000000000000000000, 0.000000000000000000, -0.000000000000000000 ) ) ;
#712 = FACE_OUTER_BOUND ( 'NONE', #945, .T. ) ;
#713 = DIRECTION ( 'NONE',  ( -0.000000000000000000, -0.000000000000000000, 1.000000000000000000 ) ) ;
#714 = ADVANCED_FACE ( 'NONE', ( #818 ), #322, .F. ) ;
#715 = CARTESIAN_POINT ( 'NONE',  ( 0.9499999999999999556, 0.04999999999999991257, -0.6249999999999998890 ) ) ;
#716 = LINE ( 'NONE', #914, #1203 ) ;
#717 = EDGE_CURVE ( 'NONE', #1092, #150, #203, .T. ) ;
#718 = LINE ( 'NONE', #528, #442 ) ;
#719 = CIRCLE ( 'NONE', #297, 0.05000000000000002359 ) ;
#720 = ORIENTED_EDGE ( 'NONE', *, *, #1055, .F. ) ;
#721 = LINE ( 'NONE', #1253, #37 ) ;
#722 = AXIS2_PLACEMENT_3D ( 'NONE', #1146, #350, #90 ) ;
#723 = EDGE_LOOP ( 'NONE', ( #357, #1260, #860, #240 ) ) ;
#724 = DIRECTION ( 'NONE',  ( 0.000000000000000000, 0.000000000000000000, 1.000000000000000000 ) ) ;
#725 = DIRECTION ( 'NONE',  ( 1.000000000000000000, -0.000000000000000000, 0.000000000000000000 ) ) ;
#726 = EDGE_CURVE ( 'NONE', #815, #549, #516, .T. ) ;
#727 = AXIS2_PLACEMENT_3D ( 'NONE', #115, #1016, #730 ) ;
#728 = DIRECTION ( 'NONE',  ( -1.000000000000000000, -0.000000000000000000, 8.673617379884036705E-17 ) ) ;
#729 = VERTEX_POINT ( 'NONE', #933 ) ;
#730 = DIRECTION ( 'NONE',  ( 0.000000000000000000, 0.000000000000000000, 1.000000000000000000 ) ) ;
#731 = DIRECTION ( 'NONE',  ( -1.000000000000000000, -0.000000000000000000, 8.673617379884036705E-17 ) ) ;
#732 = CARTESIAN_POINT ( 'NONE',  ( 0.9499999999999995115, 0.05000000000000000278, 0.5749999999999996225 ) ) ;
#733 = DIRECTION ( 'NONE',  ( 0.000000000000000000, 1.000000000000000000, 0.000000000000000000 ) ) ;
#734 = EDGE_CURVE ( 'NONE', #760, #880, #1035, .T. ) ;
#735 = CARTESIAN_POINT ( 'NONE',  ( -0.9499999999999999556, 0.000000000000000000, -0.5749999999999998446 ) ) ;
#736 = ORIENTED_EDGE ( 'NONE', *, *, #763, .T. ) ;
#737 = CARTESIAN_POINT ( 'NONE',  ( -0.9999999999999995559, 1.449999999999999956, 0.6249999999999996669 ) ) ;
#738 = CARTESIAN_POINT ( 'NONE',  ( -0.9999999999999995559, 1.399999999999999911, 0.5749999999999996225 ) ) ;
#739 = CIRCLE ( 'NONE', #609, 0.03333333333333334675 ) ;
#740 = CIRCLE ( 'NONE', #1124, 0.05000000000000002359 ) ;
#741 = EDGE_LOOP ( 'NONE', ( #598, #1040, #736, #1140 ) ) ;
#742 = LINE ( 'NONE', #11, #450 ) ;
#743 = FACE_OUTER_BOUND ( 'NONE', #600, .T. ) ;
#744 = LINE ( 'NONE', #927, #1090 ) ;
#745 = AXIS2_PLACEMENT_3D ( 'NONE', #885, #1000, #2 ) ;
#746 = ORIENTED_EDGE ( 'NONE', *, *, #478, .F. ) ;
#747 = AXIS2_PLACEMENT_3D ( 'NONE', #1248, #197, #480 ) ;
#748 = VERTEX_POINT ( 'NONE', #1117 ) ;
#749 = CARTESIAN_POINT ( 'NONE',  ( 0.000000000000000000, 0.000000000000000000, 0.000000000000000000 ) ) ;
#750 = CARTESIAN_POINT ( 'NONE',  ( -0.9499999999999995115, 0.000000000000000000, 0.5749999999999996225 ) ) ;
#751 = LINE ( 'NONE', #861, #535 ) ;
#752 = VECTOR ( 'NONE', #1278, 1000.000000000000000 ) ;
#753 = FACE_OUTER_BOUND ( 'NONE', #1277, .T. ) ;
#754 = EDGE_LOOP ( 'NONE', ( #180, #512, #1237, #360, #151, #344, #1271, #1279 ) ) ;
#755 = ORIENTED_EDGE ( 'NONE', *, *, #300, .F. ) ;
#756 = DIRECTION ( 'NONE',  ( -3.469446951953614682E-16, 0.000000000000000000, -1.000000000000000000 ) ) ;
#757 = CARTESIAN_POINT ( 'NONE',  ( -0.4999999999999996669, 1.399999999999999911, 0.6083333333333331705 ) ) ;
#758 = CARTESIAN_POINT ( 'NONE',  ( -1.000000000000000000, 1.399999999999999911, -0.5749999999999998446 ) ) ;
#759 = ADVANCED_FACE ( 'NONE', ( #41 ), #649, .T. ) ;
#760 = VERTEX_POINT ( 'NONE', #225 ) ;
#761 = VECTOR ( 'NONE', #648, 1000.000000000000000 ) ;
#762 = VERTEX_POINT ( 'NONE', #415 ) ;
#763 = EDGE_CURVE ( 'NONE', #568, #1101, #958, .T. ) ;
#764 = CARTESIAN_POINT ( 'NONE',  ( 0.000000000000000000, 0.000000000000000000, 0.000000000000000000 ) ) ;
#765 = CARTESIAN_POINT ( 'NONE',  ( -0.4999999999999996669, 0.04999999999999991257, -0.5749999999999997335 ) ) ;
#766 = ORIENTED_EDGE ( 'NONE', *, *, #675, .T. ) ;
#767 = SURFACE_STYLE_USAGE ( .BOTH. , #1165 ) ;
#768 = EDGE_CURVE ( 'NONE', #804, #222, #824, .T. ) ;
#769 = APPLICATION_PROTOCOL_DEFINITION ( 'draft international standard', 'automotive_design', 1998, #76 ) ;
#770 = VECTOR ( 'NONE', #689, 1000.000000000000000 ) ;
#771 = VERTEX_POINT ( 'NONE', #217 ) ;
#772 = FILL_AREA_STYLE_COLOUR ( '', #1246 ) ;
#773 = DIRECTION ( 'NONE',  ( 0.000000000000000000, 0.000000000000000000, 1.000000000000000000 ) ) ;
#774 = EDGE_LOOP ( 'NONE', ( #858, #10, #1087 ) ) ;
#775 = DIRECTION ( 'NONE',  ( 3.469446951953614682E-16, 0.000000000000000000, -1.000000000000000000 ) ) ;
#776 = EDGE_CURVE ( 'NONE', #760, #1139, #1276, .T. ) ;
#777 = ADVANCED_FACE ( 'NONE', ( #434 ), #1026, .T. ) ;
#778 = VERTEX_POINT ( 'NONE', #438 ) ;
#779 = DIRECTION ( 'NONE',  ( -1.000000000000000000, -0.000000000000000000, 8.673617379884036705E-17 ) ) ;
#780 = CLOSED_SHELL ( 'NONE', ( #108, #1130, #612, #1219, #1205, #68, #714, #617, #18, #577 ) ) ;
#781 = ORIENTED_EDGE ( 'NONE', *, *, #603, .F. ) ;
#782 = AXIS2_PLACEMENT_3D ( 'NONE', #630, #428, #1019 ) ;
#783 = DIRECTION ( 'NONE',  ( 0.000000000000000000, -1.000000000000000000, 0.000000000000000000 ) ) ;
#784 = CYLINDRICAL_SURFACE ( 'NONE', #105, 0.05000000000000002359 ) ;
#785 = ORIENTED_EDGE ( 'NONE', *, *, #372, .F. ) ;
#786 = CARTESIAN_POINT ( 'NONE',  ( 0.9499999999999999556, 1.449999999999999956, -0.5749999999999998446 ) ) ;
#787 = VECTOR ( 'NONE', #53, 1000.000000000000000 ) ;
#788 = PRESENTATION_LAYER_ASSIGNMENT (  '', '', ( #534 ) ) ;
#789 = VERTEX_POINT ( 'NONE', #738 ) ;
#790 = LINE ( 'NONE', #283, #430 ) ;
#791 = CIRCLE ( 'NONE', #578, 0.05000000000000002359 ) ;
#792 = CARTESIAN_POINT ( 'NONE',  ( -0.9499999999999999556, 1.449999999999999956, -0.5749999999999998446 ) ) ;
#793 = EDGE_LOOP ( 'NONE', ( #557, #952, #377, #797 ) ) ;
#794 = CARTESIAN_POINT ( 'NONE',  ( -0.4999999999999995559, 0.04999999999999991257, 0.5749999999999996225 ) ) ;
#795 = VERTEX_POINT ( 'NONE', #125 ) ;
#796 = PLANE ( 'NONE',  #280 ) ;
#797 = ORIENTED_EDGE ( 'NONE', *, *, #127, .T. ) ;
#798 = CARTESIAN_POINT ( 'NONE',  ( 0.9999999999999995559, 1.449999999999999956, 0.6249999999999996669 ) ) ;
#799 = EDGE_CURVE ( 'NONE', #789, #292, #1075, .T. ) ;
#800 = ORIENTED_EDGE ( 'NONE', *, *, #569, .F. ) ;
#801 = FACE_OUTER_BOUND ( 'NONE', #43, .T. ) ;
#802 = VECTOR ( 'NONE', #1014, 1000.000000000000000 ) ;
#803 = EDGE_CURVE ( 'NONE', #537, #555, #514, .T. ) ;
#804 = VERTEX_POINT ( 'NONE', #446 ) ;
#805 = CYLINDRICAL_SURFACE ( 'NONE', #625, 0.05000000000000002359 ) ;
#806 = EDGE_CURVE ( 'NONE', #880, #458, #619, .T. ) ;
#807 = AXIS2_PLACEMENT_3D ( 'NONE', #1064, #205, #995 ) ;
#808 = ORIENTED_EDGE ( 'NONE', *, *, #1036, .F. ) ;
#809 = DIRECTION ( 'NONE',  ( 1.000000000000000000, 0.000000000000000000, -3.469446951953614682E-16 ) ) ;
#810 = CARTESIAN_POINT ( 'NONE',  ( 0.4999999999881765689, 1.399999999999999911, 0.6083333333333331705 ) ) ;
#811 = LINE ( 'NONE', #308, #877 ) ;
#812 = CARTESIAN_POINT ( 'NONE',  ( -0.9499999999999995115, 1.449999999999999956, 0.5749999999999996225 ) ) ;
#813 = ADVANCED_FACE ( 'NONE', ( #533 ), #141, .T. ) ;
#814 = EDGE_CURVE ( 'NONE', #252, #1154, #744, .T. ) ;
#815 = VERTEX_POINT ( 'NONE', #1163 ) ;
#816 = CARTESIAN_POINT ( 'NONE',  ( -0.9499999999999999556, 1.449999999999999956, -0.6249999999999998890 ) ) ;
#817 = DIRECTION ( 'NONE',  ( 0.000000000000000000, 0.000000000000000000, -1.000000000000000000 ) ) ;
#818 = FACE_OUTER_BOUND ( 'NONE', #997, .T. ) ;
#819 = FACE_OUTER_BOUND ( 'NONE', #1188, .T. ) ;
#820 = CARTESIAN_POINT ( 'NONE',  ( -0.9499999999999999556, 1.399999999999999911, -0.5749999999999998446 ) ) ;
#821 = ORIENTED_EDGE ( 'NONE', *, *, #46, .F. ) ;
#822 = DIRECTION ( 'NONE',  ( 0.000000000000000000, 0.000000000000000000, 1.000000000000000000 ) ) ;
#823 = DIRECTION ( 'NONE',  ( 0.000000000000000000, -1.000000000000000000, 0.000000000000000000 ) ) ;
#824 = LINE ( 'NONE', #1201, #915 ) ;
#825 = ADVANCED_BREP_SHAPE_REPRESENTATION ( 'KEMET_X7R_C0805CDH', ( #548, #982, #551, #301 ), #890 ) ;
#826 = ORIENTED_EDGE ( 'NONE', *, *, #1115, .F. ) ;
#827 = FACE_OUTER_BOUND ( 'NONE', #960, .T. ) ;
#828 = EDGE_CURVE ( 'NONE', #381, #160, #719, .T. ) ;
#829 = CARTESIAN_POINT ( 'NONE',  ( 500000.0000000000582, 0.04999999999999991257, 0.6083333332899650836 ) ) ;
#830 = DIRECTION ( 'NONE',  ( 0.000000000000000000, 0.000000000000000000, -1.000000000000000000 ) ) ;
#831 = DIRECTION ( 'NONE',  ( -0.000000000000000000, 1.000000000000000000, -0.000000000000000000 ) ) ;
#832 = VECTOR ( 'NONE', #319, 1000.000000000000000 ) ;
#833 = ORIENTED_EDGE ( 'NONE', *, *, #1030, .F. ) ;
#834 = CARTESIAN_POINT ( 'NONE',  ( -0.9499999999999995115, 1.399999999999999911, 0.5749999999999996225 ) ) ;
#835 = CARTESIAN_POINT ( 'NONE',  ( 0.4999999999881765689, 0.04999999999999991951, -0.6083333333333331705 ) ) ;
#836 = DIRECTION ( 'NONE',  ( 0.000000000000000000, 1.000000000000000000, 0.000000000000000000 ) ) ;
#837 = CARTESIAN_POINT ( 'NONE',  ( 0.9499999999999999556, 0.05000000000000000278, -0.5749999999999998446 ) ) ;
#838 = ORIENTED_EDGE ( 'NONE', *, *, #127, .F. ) ;
#839 = DIRECTION ( 'NONE',  ( 0.000000000000000000, 0.000000000000000000, 1.000000000000000000 ) ) ;
#840 = EDGE_CURVE ( 'NONE', #705, #575, #751, .T. ) ;
#841 = CARTESIAN_POINT ( 'NONE',  ( 0.9499999999999995115, 0.05000000000000000278, 0.5749999999999996225 ) ) ;
#842 = EDGE_LOOP ( 'NONE', ( #1250, #436, #462 ) ) ;
#843 = LINE ( 'NONE', #320, #483 ) ;
#844 = ORIENTED_EDGE ( 'NONE', *, *, #1021, .T. ) ;
#845 = LINE ( 'NONE', #1043, #273 ) ;
#846 = CARTESIAN_POINT ( 'NONE',  ( -0.9499999999999995115, 1.399999999999999911, 0.5749999999999996225 ) ) ;
#847 = DIRECTION ( 'NONE',  ( 0.000000000000000000, 0.000000000000000000, 1.000000000000000000 ) ) ;
#848 = ORIENTED_EDGE ( 'NONE', *, *, #1001, .T. ) ;
#849 = EDGE_CURVE ( 'NONE', #1154, #1147, #597, .T. ) ;
#850 = AXIS2_PLACEMENT_3D ( 'NONE', #496, #191, #591 ) ;
#851 =( GEOMETRIC_REPRESENTATION_CONTEXT ( 3 ) GLOBAL_UNCERTAINTY_ASSIGNED_CONTEXT ( ( #626 ) ) GLOBAL_UNIT_ASSIGNED_CONTEXT ( ( #246, #260, #267 ) ) REPRESENTATION_CONTEXT ( 'NONE', 'WORKASPACE' ) );
#852 = ORIENTED_EDGE ( 'NONE', *, *, #439, .F. ) ;
#853 = CARTESIAN_POINT ( 'NONE',  ( -0.9499999999999995115, 1.449999999999999956, 0.6249999999999996669 ) ) ;
#854 = EDGE_CURVE ( 'NONE', #495, #160, #950, .T. ) ;
#855 = DIRECTION ( 'NONE',  ( 0.000000000000000000, 0.000000000000000000, 1.000000000000000000 ) ) ;
#856 = DIRECTION ( 'NONE',  ( -1.000000000000000000, 0.000000000000000000, 0.000000000000000000 ) ) ;
#857 = CARTESIAN_POINT ( 'NONE',  ( 0.9499999999999995115, 1.399999999999999911, 0.5749999999999996225 ) ) ;
#858 = ORIENTED_EDGE ( 'NONE', *, *, #494, .F. ) ;
#859 = DIRECTION ( 'NONE',  ( -0.000000000000000000, 1.000000000000000000, -0.000000000000000000 ) ) ;
#860 = ORIENTED_EDGE ( 'NONE', *, *, #776, .T. ) ;
#861 = CARTESIAN_POINT ( 'NONE',  ( 500000.0000000000582, 0.04999999999999991257, -0.6083333333767012574 ) ) ;
#862 = DIRECTION ( 'NONE',  ( -1.000000000000000000, 0.000000000000000000, 1.734723475976807341E-16 ) ) ;
#863 = ORIENTED_EDGE ( 'NONE', *, *, #944, .F. ) ;
#864 = DIRECTION ( 'NONE',  ( 1.000000000000000000, 0.000000000000000000, 1.734723475976807341E-16 ) ) ;
#865 = AXIS2_PLACEMENT_3D ( 'NONE', #228, #1215, #332 ) ;
#866 = SPHERICAL_SURFACE ( 'NONE', #596, 0.05000000000000000278 ) ;
#867 = EDGE_CURVE ( 'NONE', #236, #150, #159, .T. ) ;
#868 = PRESENTATION_LAYER_ASSIGNMENT (  '', '', ( #426 ) ) ;
#869 = ORIENTED_EDGE ( 'NONE', *, *, #374, .F. ) ;
#870 = CIRCLE ( 'NONE', #92, 0.05000000000000002359 ) ;
#871 =( LENGTH_UNIT ( ) NAMED_UNIT ( * ) SI_UNIT ( .MILLI., .METRE. ) );
#872 = EDGE_CURVE ( 'NONE', #167, #568, #268, .T. ) ;
#873 = DIRECTION ( 'NONE',  ( 1.000000000000000000, 0.000000000000000000, 0.000000000000000000 ) ) ;
#874 = ORIENTED_EDGE ( 'NONE', *, *, #574, .T. ) ;
#875 = DIRECTION ( 'NONE',  ( -1.000000000000000000, -0.000000000000000000, -0.000000000000000000 ) ) ;
#876 = EDGE_LOOP ( 'NONE', ( #55, #561, #100, #909 ) ) ;
#877 = VECTOR ( 'NONE', #708, 1000.000000000000000 ) ;
#878 =( NAMED_UNIT ( * ) PLANE_ANGLE_UNIT ( ) SI_UNIT ( $, .RADIAN. ) );
#879 = DIRECTION ( 'NONE',  ( -0.000000000000000000, -1.000000000000000000, -0.000000000000000000 ) ) ;
#880 = VERTEX_POINT ( 'NONE', #369 ) ;
#881 = PRESENTATION_STYLE_ASSIGNMENT (( #376 ) ) ;
#882 = DIRECTION ( 'NONE',  ( 1.734723475976807341E-16, 0.000000000000000000, -1.000000000000000000 ) ) ;
#883 = LINE ( 'NONE', #1269, #129 ) ;
#884 = VERTEX_POINT ( 'NONE', #567 ) ;
#885 = CARTESIAN_POINT ( 'NONE',  ( -0.4999999999999997780, 0.04999999999999991257, -0.5749999999999998446 ) ) ;
#886 = CIRCLE ( 'NONE', #989, 0.03333333333333334675 ) ;
#887 = AXIS2_PLACEMENT_3D ( 'NONE', #70, #1048, #670 ) ;
#888 = CARTESIAN_POINT ( 'NONE',  ( 0.4999999999999997780, 1.399999999999999911, -0.6249999999999998890 ) ) ;
#889 = FACE_OUTER_BOUND ( 'NONE', #1156, .T. ) ;
#890 =( GEOMETRIC_REPRESENTATION_CONTEXT ( 3 ) GLOBAL_UNCERTAINTY_ASSIGNED_CONTEXT ( ( #1209 ) ) GLOBAL_UNIT_ASSIGNED_CONTEXT ( ( #658, #1161, #152 ) ) REPRESENTATION_CONTEXT ( 'NONE', 'WORKASPACE' ) );
#891 = EDGE_CURVE ( 'NONE', #381, #1003, #362, .T. ) ;
#892 = ORIENTED_EDGE ( 'NONE', *, *, #768, .F. ) ;
#893 = DIRECTION ( 'NONE',  ( 1.000000000000000000, 0.000000000000000000, -8.673617379884037937E-17 ) ) ;
#894 = AXIS2_PLACEMENT_3D ( 'NONE', #36, #919, #636 ) ;
#895 = ORIENTED_EDGE ( 'NONE', *, *, #955, .F. ) ;
#896 = FACE_OUTER_BOUND ( 'NONE', #326, .T. ) ;
#897 = EDGE_LOOP ( 'NONE', ( #1033, #184, #863, #484 ) ) ;
#898 = CYLINDRICAL_SURFACE ( 'NONE', #671, 0.05000000000000002359 ) ;
#899 = CIRCLE ( 'NONE', #418, 0.05000000000000002359 ) ;
#900 = VERTEX_POINT ( 'NONE', #471 ) ;
#901 = DIRECTION ( 'NONE',  ( -1.734723475976807587E-16, -0.000000000000000000, -1.000000000000000000 ) ) ;
#902 = CIRCLE ( 'NONE', #1066, 0.05000000000000002359 ) ;
#903 = EDGE_CURVE ( 'NONE', #458, #259, #136, .T. ) ;
#904 = FACE_OUTER_BOUND ( 'NONE', #897, .T. ) ;
#905 = CARTESIAN_POINT ( 'NONE',  ( -0.4999999999999996669, 0.04999999999999991951, -0.6083333333333331705 ) ) ;
#906 = CARTESIAN_POINT ( 'NONE',  ( 0.9499999999999999556, 1.399999999999999911, -0.6249999999999998890 ) ) ;
#907 = EDGE_CURVE ( 'NONE', #1032, #789, #1051, .T. ) ;
#908 = AXIS2_PLACEMENT_3D ( 'NONE', #1158, #355, #255 ) ;
#909 = ORIENTED_EDGE ( 'NONE', *, *, #854, .F. ) ;
#910 = PLANE ( 'NONE',  #162 ) ;
#911 = CARTESIAN_POINT ( 'NONE',  ( 0.9499999999999999556, 1.399999999999999911, -0.5749999999999998446 ) ) ;
#912 = DIRECTION ( 'NONE',  ( 0.000000000000000000, 0.000000000000000000, -1.000000000000000000 ) ) ;
#913 = PRODUCT_DEFINITION_FORMATION_WITH_SPECIFIED_SOURCE ( 'ANY', '', #315, .NOT_KNOWN. ) ;
#914 = CARTESIAN_POINT ( 'NONE',  ( -1.000000000000000000, 1.399999999999999911, -0.6249999999999998890 ) ) ;
#915 = VECTOR ( 'NONE', #1109, 1000.000000000000000 ) ;
#916 = ORIENTED_EDGE ( 'NONE', *, *, #814, .T. ) ;
#917 = DIRECTION ( 'NONE',  ( 0.000000000000000000, -1.000000000000000000, 0.000000000000000000 ) ) ;
#918 = FACE_OUTER_BOUND ( 'NONE', #57, .T. ) ;
#919 = DIRECTION ( 'NONE',  ( 0.000000000000000000, 0.000000000000000000, 1.000000000000000000 ) ) ;
#920 = CARTESIAN_POINT ( 'NONE',  ( 0.000000000000000000, 1.449999999999999956, 0.000000000000000000 ) ) ;
#921 = CARTESIAN_POINT ( 'NONE',  ( 0.000000000000000000, 0.000000000000000000, 0.5749999999999996225 ) ) ;
#922 = DIRECTION ( 'NONE',  ( 1.000000000000000000, 0.000000000000000000, 3.469446951953615668E-16 ) ) ;
#923 = EDGE_LOOP ( 'NONE', ( #652, #194, #447, #833 ) ) ;
#924 = PLANE ( 'NONE',  #263 ) ;
#925 = VECTOR ( 'NONE', #307, 1000.000000000000000 ) ;
#926 = CARTESIAN_POINT ( 'NONE',  ( -1.000000000000000000, 0.04999999999999991257, -0.6249999999999998890 ) ) ;
#927 = CARTESIAN_POINT ( 'NONE',  ( 0.4999999999881765689, 1.433333333333333348, -0.5750000001301038832 ) ) ;
#928 = CARTESIAN_POINT ( 'NONE',  ( 0.4999999999999995559, 1.449999999999999956, 0.5749999999999996225 ) ) ;
#929 =( GEOMETRIC_REPRESENTATION_CONTEXT ( 3 ) GLOBAL_UNCERTAINTY_ASSIGNED_CONTEXT ( ( #306 ) ) GLOBAL_UNIT_ASSIGNED_CONTEXT ( ( #174, #275, #477 ) ) REPRESENTATION_CONTEXT ( 'NONE', 'WORKASPACE' ) );
#930 = ORIENTED_EDGE ( 'NONE', *, *, #343, .F. ) ;
#931 = CARTESIAN_POINT ( 'NONE',  ( -0.9499999999999995115, 1.449999999999999956, 0.6249999999999996669 ) ) ;
#932 = CARTESIAN_POINT ( 'NONE',  ( 0.4999999999999997780, 1.449999999999999956, -0.6249999999999998890 ) ) ;
#933 = CARTESIAN_POINT ( 'NONE',  ( -0.4999999999999996669, 0.01666666666666666644, -0.5749999999999996225 ) ) ;
#934 = VECTOR ( 'NONE', #391, 1000.000000000000000 ) ;
#935 = EDGE_CURVE ( 'NONE', #729, #575, #886, .T. ) ;
#936 = ORIENTED_EDGE ( 'NONE', *, *, #944, .T. ) ;
#937 = DIRECTION ( 'NONE',  ( 1.000000000000000000, -0.000000000000000000, -1.734723475976807341E-16 ) ) ;
#938 = CYLINDRICAL_SURFACE ( 'NONE', #104, 0.05000000000000002359 ) ;
#939 = DIRECTION ( 'NONE',  ( -8.673617379884037937E-17, 0.000000000000000000, -1.000000000000000000 ) ) ;
#940 = ORIENTED_EDGE ( 'NONE', *, *, #622, .F. ) ;
#941 = ORIENTED_EDGE ( 'NONE', *, *, #427, .T. ) ;
#942 = LINE ( 'NONE', #47, #1065 ) ;
#943 = DIRECTION ( 'NONE',  ( 1.000000000000000000, 0.000000000000000000, 0.000000000000000000 ) ) ;
#944 = EDGE_CURVE ( 'NONE', #789, #476, #870, .T. ) ;
#945 = EDGE_LOOP ( 'NONE', ( #64, #701, #1160 ) ) ;
#946 = CIRCLE ( 'NONE', #71, 0.03333333333333334675 ) ;
#947 = EDGE_CURVE ( 'NONE', #884, #795, #672, .T. ) ;
#948 = VERTEX_POINT ( 'NONE', #668 ) ;
#949 = PLANE ( 'NONE',  #359 ) ;
#950 = LINE ( 'NONE', #1044, #448 ) ;
#951 = CARTESIAN_POINT ( 'NONE',  ( 0.9999999999999995559, 0.04999999999999991257, 0.6249999999999996669 ) ) ;
#952 = ORIENTED_EDGE ( 'NONE', *, *, #1259, .T. ) ;
#953 = ADVANCED_FACE ( 'NONE', ( #1067 ), #155, .T. ) ;
#954 = ORIENTED_EDGE ( 'NONE', *, *, #206, .F. ) ;
#955 = EDGE_CURVE ( 'NONE', #269, #476, #964, .T. ) ;
#956 = CARTESIAN_POINT ( 'NONE',  ( 0.000000000000000000, 0.000000000000000000, -0.5749999999999998446 ) ) ;
#957 = CARTESIAN_POINT ( 'NONE',  ( 0.9499999999999995115, 1.399999999999999911, 0.5749999999999996225 ) ) ;
#958 = CIRCLE ( 'NONE', #563, 0.03333333333333334675 ) ;
#959 = CARTESIAN_POINT ( 'NONE',  ( -0.9499999999999995115, 1.399999999999999911, 0.6249999999999996669 ) ) ;
#960 = EDGE_LOOP ( 'NONE', ( #1254, #972, #470, #352 ) ) ;
#961 = ADVANCED_FACE ( 'NONE', ( #178 ), #866, .T. ) ;
#962 = EDGE_LOOP ( 'NONE', ( #1264, #1197, #766, #954 ) ) ;
#963 = DIRECTION ( 'NONE',  ( -1.000000000000000000, -0.000000000000000000, 8.673617379884036705E-17 ) ) ;
#964 = LINE ( 'NONE', #554, #644 ) ;
#965 = ORIENTED_EDGE ( 'NONE', *, *, #527, .T. ) ;
#966 = FILL_AREA_STYLE ('',( #467 ) ) ;
#967 = AXIS2_PLACEMENT_3D ( 'NONE', #628, #21, #1025 ) ;
#968 = VECTOR ( 'NONE', #566, 1000.000000000000000 ) ;
#969 = PRESENTATION_STYLE_ASSIGNMENT (( #570 ) ) ;
#970 = DIRECTION ( 'NONE',  ( 0.000000000000000000, -1.000000000000000000, -0.000000000000000000 ) ) ;
#971 = CIRCLE ( 'NONE', #1089, 0.05000000000000002359 ) ;
#972 = ORIENTED_EDGE ( 'NONE', *, *, #276, .T. ) ;
#973 = DIRECTION ( 'NONE',  ( 0.000000000000000000, -1.000000000000000000, 0.000000000000000000 ) ) ;
#974 = VERTEX_POINT ( 'NONE', #465 ) ;
#975 = CYLINDRICAL_SURFACE ( 'NONE', #887, 0.05000000000000002359 ) ;
#976 = VECTOR ( 'NONE', #287, 1000.000000000000000 ) ;
#977 = DIRECTION ( 'NONE',  ( 0.000000000000000000, 0.000000000000000000, 1.000000000000000000 ) ) ;
#978 = ORIENTED_EDGE ( 'NONE', *, *, #1243, .T. ) ;
#979 = CARTESIAN_POINT ( 'NONE',  ( 500000.0000000000582, 0.04999999999999991951, -0.6083333333767012574 ) ) ;
#980 = VECTOR ( 'NONE', #725, 1000.000000000000000 ) ;
#981 = AXIS2_PLACEMENT_3D ( 'NONE', #635, #1200, #404 ) ;
#982 = MANIFOLD_SOLID_BREP ( 'Mirror2', #65 ) ;
#983 = EDGE_CURVE ( 'NONE', #160, #1032, #95, .T. ) ;
#984 = EDGE_LOOP ( 'NONE', ( #431, #1063, #408, #746 ) ) ;
#985 = DIRECTION ( 'NONE',  ( 0.000000000000000000, 0.000000000000000000, -1.000000000000000000 ) ) ;
#986 = ORIENTED_EDGE ( 'NONE', *, *, #140, .T. ) ;
#987 = FACE_OUTER_BOUND ( 'NONE', #383, .T. ) ;
#988 = COLOUR_RGB ( '',0.4862745098039215619, 0.2352941176470588203, 0.01568627450980392135 ) ;
#989 = AXIS2_PLACEMENT_3D ( 'NONE', #765, #348, #452 ) ;
#990 = EDGE_CURVE ( 'NONE', #549, #167, #221, .T. ) ;
#991 = VERTEX_POINT ( 'NONE', #1268 ) ;
#992 = LINE ( 'NONE', #500, #80 ) ;
#993 = AXIS2_PLACEMENT_3D ( 'NONE', #615, #432, #1207 ) ;
#994 = ORIENTED_EDGE ( 'NONE', *, *, #1177, .T. ) ;
#995 = DIRECTION ( 'NONE',  ( 0.000000000000000000, 0.000000000000000000, 1.000000000000000000 ) ) ;
#996 = EDGE_CURVE ( 'NONE', #1071, #1256, #384, .T. ) ;
#997 = EDGE_LOOP ( 'NONE', ( #821, #1180, #466, #681 ) ) ;
#998 = CYLINDRICAL_SURFACE ( 'NONE', #850, 0.05000000000000002359 ) ;
#999 = DIRECTION ( 'NONE',  ( 0.000000000000000000, 1.000000000000000000, 0.000000000000000000 ) ) ;
#1000 = DIRECTION ( 'NONE',  ( 1.000000000000000000, -0.000000000000000000, -1.734723475976807341E-16 ) ) ;
#1001 = EDGE_CURVE ( 'NONE', #458, #537, #700, .T. ) ;
#1002 = AXIS2_PLACEMENT_3D ( 'NONE', #1137, #1234, #261 ) ;
#1003 = VERTEX_POINT ( 'NONE', #583 ) ;
#1004 = DIRECTION ( 'NONE',  ( -1.000000000000000000, -0.000000000000000000, -0.000000000000000000 ) ) ;
#1005 = LINE ( 'NONE', #926, #291 ) ;
#1006 = FACE_OUTER_BOUND ( 'NONE', #295, .T. ) ;
#1007 = DIRECTION ( 'NONE',  ( 1.734723475976807587E-16, -0.000000000000000000, -1.000000000000000000 ) ) ;
#1008 = MECHANICAL_DESIGN_GEOMETRIC_PRESENTATION_REPRESENTATION (  '', ( #534 ), #1170 ) ;
#1009 = ORIENTED_EDGE ( 'NONE', *, *, #335, .T. ) ;
#1010 = CARTESIAN_POINT ( 'NONE',  ( 500000.0000000000582, 0.01666666666666666644, 0.5749999999566317577 ) ) ;
#1011 = DIRECTION ( 'NONE',  ( -1.000000000000000000, -0.000000000000000000, 8.673617379884036705E-17 ) ) ;
#1012 = CARTESIAN_POINT ( 'NONE',  ( 0.9999999999999995559, 1.449999999999999956, 0.5749999999999997335 ) ) ;
#1013 = AXIS2_PLACEMENT_3D ( 'NONE', #402, #209, #101 ) ;
#1014 = DIRECTION ( 'NONE',  ( -1.000000000000000000, 0.000000000000000000, 0.000000000000000000 ) ) ;
#1015 = VERTEX_POINT ( 'NONE', #888 ) ;
#1016 = DIRECTION ( 'NONE',  ( -1.000000000000000000, -0.000000000000000000, 8.673617379884036705E-17 ) ) ;
#1017 = CARTESIAN_POINT ( 'NONE',  ( -0.9499999999999999556, 1.399999999999999911, -0.5749999999999998446 ) ) ;
#1018 = DIRECTION ( 'NONE',  ( 1.000000000000000000, 0.000000000000000000, 0.000000000000000000 ) ) ;
#1019 = DIRECTION ( 'NONE',  ( -1.000000000000000000, 0.000000000000000000, 0.000000000000000000 ) ) ;
#1020 = DIRECTION ( 'NONE',  ( -1.000000000000000000, 0.000000000000000000, 0.000000000000000000 ) ) ;
#1021 = EDGE_CURVE ( 'NONE', #1015, #974, #791, .T. ) ;
#1022 = EDGE_LOOP ( 'NONE', ( #638, #1049, #892, #187, #930, #214, #543, #190 ) ) ;
#1023 = CARTESIAN_POINT ( 'NONE',  ( 1.000000000000000000, 0.04999999999999991257, -0.6249999999999998890 ) ) ;
#1024 = AXIS2_PLACEMENT_3D ( 'NONE', #489, #91, #1169 ) ;
#1025 = DIRECTION ( 'NONE',  ( 0.000000000000000000, -0.000000000000000000, -1.000000000000000000 ) ) ;
#1026 = SPHERICAL_SURFACE ( 'NONE', #650, 0.05000000000000000278 ) ;
#1027 = CIRCLE ( 'NONE', #468, 0.05000000000000002359 ) ;
#1028 = VERTEX_POINT ( 'NONE', #304 ) ;
#1029 = CARTESIAN_POINT ( 'NONE',  ( -0.4999999999999996669, 0.01666666666666662133, 0.5749999999999998446 ) ) ;
#1030 = EDGE_CURVE ( 'NONE', #537, #150, #790, .T. ) ;
#1031 = EDGE_CURVE ( 'NONE', #900, #1028, #1275, .T. ) ;
#1032 = VERTEX_POINT ( 'NONE', #202 ) ;
#1033 = ORIENTED_EDGE ( 'NONE', *, *, #581, .F. ) ;
#1034 = FACE_OUTER_BOUND ( 'NONE', #499, .T. ) ;
#1035 = CIRCLE ( 'NONE', #894, 0.05000000000000002359 ) ;
#1036 = EDGE_CURVE ( 'NONE', #333, #1003, #992, .T. ) ;
#1037 = DIRECTION ( 'NONE',  ( 1.000000000000000000, 0.000000000000000000, 1.734723475976807341E-16 ) ) ;
#1038 = DIRECTION ( 'NONE',  ( 0.000000000000000000, 1.000000000000000000, 0.000000000000000000 ) ) ;
#1039 = ADVANCED_FACE ( 'NONE', ( #1081 ), #998, .T. ) ;
#1040 = ORIENTED_EDGE ( 'NONE', *, *, #99, .T. ) ;
#1041 = ORIENTED_EDGE ( 'NONE', *, *, #907, .T. ) ;
#1042 = DIRECTION ( 'NONE',  ( 1.000000000000000000, -0.000000000000000000, -0.000000000000000000 ) ) ;
#1043 = CARTESIAN_POINT ( 'NONE',  ( 0.4999999999999997780, 1.449999999999999956, -0.6249999999999998890 ) ) ;
#1044 = CARTESIAN_POINT ( 'NONE',  ( -1.000000000000000000, 1.449999999999999956, -0.5749999999999998446 ) ) ;
#1045 = VECTOR ( 'NONE', #44, 1000.000000000000000 ) ;
#1046 = AXIS2_PLACEMENT_3D ( 'NONE', #1017, #999, #1103 ) ;
#1047 = ORIENTED_EDGE ( 'NONE', *, *, #703, .T. ) ;
#1048 = DIRECTION ( 'NONE',  ( 1.000000000000000000, -0.000000000000000000, 0.000000000000000000 ) ) ;
#1049 = ORIENTED_EDGE ( 'NONE', *, *, #603, .T. ) ;
#1050 = AXIS2_PLACEMENT_3D ( 'NONE', #957, #1138, #474 ) ;
#1051 = LINE ( 'NONE', #248, #787 ) ;
#1052 = CYLINDRICAL_SURFACE ( 'NONE', #722, 0.05000000000000002359 ) ;
#1053 = ORIENTED_EDGE ( 'NONE', *, *, #457, .T. ) ;
#1054 = DIRECTION ( 'NONE',  ( 0.000000000000000000, 1.000000000000000000, 0.000000000000000000 ) ) ;
#1055 = EDGE_CURVE ( 'NONE', #274, #1015, #488, .T. ) ;
#1056 = EDGE_LOOP ( 'NONE', ( #1060, #208, #505 ) ) ;
#1057 = DIRECTION ( 'NONE',  ( 0.000000000000000000, -1.000000000000000000, 0.000000000000000000 ) ) ;
#1058 = CYLINDRICAL_SURFACE ( 'NONE', #1002, 0.05000000000000002359 ) ;
#1059 = CARTESIAN_POINT ( 'NONE',  ( 0.9499999999999999556, 1.449999999999999956, -0.5749999999999998446 ) ) ;
#1060 = ORIENTED_EDGE ( 'NONE', *, *, #803, .F. ) ;
#1061 = FACE_OUTER_BOUND ( 'NONE', #138, .T. ) ;
#1062 = SURFACE_STYLE_FILL_AREA ( #1157 ) ;
#1063 = ORIENTED_EDGE ( 'NONE', *, *, #396, .F. ) ;
#1064 = CARTESIAN_POINT ( 'NONE',  ( 500000.0000000000582, 1.399999999999999911, -0.5750000000433678204 ) ) ;
#1065 = VECTOR ( 'NONE', #756, 1000.000000000000000 ) ;
#1066 = AXIS2_PLACEMENT_3D ( 'NONE', #585, #879, #977 ) ;
#1067 = FACE_OUTER_BOUND ( 'NONE', #544, .T. ) ;
#1068 = ADVANCED_FACE ( 'NONE', ( #896 ), #796, .F. ) ;
#1069 = AXIS2_PLACEMENT_3D ( 'NONE', #1059, #166, #60 ) ;
#1070 = AXIS2_PLACEMENT_3D ( 'NONE', #62, #1054, #78 ) ;
#1071 = VERTEX_POINT ( 'NONE', #395 ) ;
#1072 = ORIENTED_EDGE ( 'NONE', *, *, #734, .F. ) ;
#1073 = ADVANCED_FACE ( 'NONE', ( #801 ), #296, .T. ) ;
#1074 = CARTESIAN_POINT ( 'NONE',  ( 0.9499999999999995115, 1.399999999999999911, 0.5749999999999996225 ) ) ;
#1075 = CIRCLE ( 'NONE', #582, 0.05000000000000002359 ) ;
#1076 = ORIENTED_EDGE ( 'NONE', *, *, #1111, .F. ) ;
#1077 = SPHERICAL_SURFACE ( 'NONE', #602, 0.05000000000000000278 ) ;
#1078 = EDGE_CURVE ( 'NONE', #1154, #549, #1189, .T. ) ;
#1079 = APPLICATION_CONTEXT ( 'automotive_design' ) ;
#1080 = ORIENTED_EDGE ( 'NONE', *, *, #1243, .F. ) ;
#1081 = FACE_OUTER_BOUND ( 'NONE', #1178, .T. ) ;
#1082 = CARTESIAN_POINT ( 'NONE',  ( 0.9499999999999997335, 1.399999999999999911, 3.295974604355932986E-16 ) ) ;
#1083 = ORIENTED_EDGE ( 'NONE', *, *, #1220, .F. ) ;
#1084 = DIRECTION ( 'NONE',  ( 1.000000000000000000, 0.000000000000000000, 0.000000000000000000 ) ) ;
#1085 = VECTOR ( 'NONE', #963, 1000.000000000000000 ) ;
#1086 = CARTESIAN_POINT ( 'NONE',  ( -1.000000000000000000, 0.04999999999999991257, -0.6249999999999998890 ) ) ;
#1087 = ORIENTED_EDGE ( 'NONE', *, *, #302, .F. ) ;
#1088 = CARTESIAN_POINT ( 'NONE',  ( 500000.0000000000582, 1.399999999999999911, 0.5749999999566316466 ) ) ;
#1089 = AXIS2_PLACEMENT_3D ( 'NONE', #857, #1236, #847 ) ;
#1090 = VECTOR ( 'NONE', #1132, 1000.000000000000000 ) ;
#1091 = EDGE_CURVE ( 'NONE', #555, #274, #704, .T. ) ;
#1092 = VERTEX_POINT ( 'NONE', #437 ) ;
#1093 = DIRECTION ( 'NONE',  ( 3.469446951953614682E-16, -0.000000000000000000, -1.000000000000000000 ) ) ;
#1094 = STYLED_ITEM ( 'NONE', ( #969 ), #825 ) ;
#1095 = DIRECTION ( 'NONE',  ( 1.000000000000000000, 0.000000000000000000, 1.734723475976807341E-16 ) ) ;
#1096 = FACE_OUTER_BOUND ( 'NONE', #842, .T. ) ;
#1097 = ORIENTED_EDGE ( 'NONE', *, *, #717, .T. ) ;
#1098 = CARTESIAN_POINT ( 'NONE',  ( 0.9499999999999999556, 1.399999999999999911, -0.5749999999999998446 ) ) ;
#1099 = DIRECTION ( 'NONE',  ( -1.000000000000000000, 0.000000000000000000, 0.000000000000000000 ) ) ;
#1100 = CARTESIAN_POINT ( 'NONE',  ( 0.9499999999999999556, 0.05000000000000000278, -0.5749999999999998446 ) ) ;
#1101 = VERTEX_POINT ( 'NONE', #1029 ) ;
#1102 = CARTESIAN_POINT ( 'NONE',  ( 0.000000000000000000, 0.000000000000000000, 0.000000000000000000 ) ) ;
#1103 = DIRECTION ( 'NONE',  ( 1.000000000000000000, 0.000000000000000000, 0.000000000000000000 ) ) ;
#1104 = DIRECTION ( 'NONE',  ( 1.000000000000000000, 0.000000000000000000, 0.000000000000000000 ) ) ;
#1105 = PRESENTATION_LAYER_ASSIGNMENT (  '', '', ( #1185 ) ) ;
#1106 = ORIENTED_EDGE ( 'NONE', *, *, #1166, .F. ) ;
#1107 = DIRECTION ( 'NONE',  ( 0.000000000000000000, 0.000000000000000000, -1.000000000000000000 ) ) ;
#1108 = CARTESIAN_POINT ( 'NONE',  ( 500000.0000000000582, 0.04999999999999991257, 0.5749999999566316466 ) ) ;
#1109 = DIRECTION ( 'NONE',  ( -0.000000000000000000, -1.000000000000000000, -0.000000000000000000 ) ) ;
#1110 = VECTOR ( 'NONE', #1167, 1000.000000000000000 ) ;
#1111 = EDGE_CURVE ( 'NONE', #795, #292, #1192, .T. ) ;
#1112 = AXIS2_PLACEMENT_3D ( 'NONE', #629, #939, #329 ) ;
#1113 = ORIENTED_EDGE ( 'NONE', *, *, #1078, .T. ) ;
#1114 = DIRECTION ( 'NONE',  ( 0.000000000000000000, -0.000000000000000000, 1.000000000000000000 ) ) ;
#1115 = EDGE_CURVE ( 'NONE', #948, #381, #492, .T. ) ;
#1116 = FACE_OUTER_BOUND ( 'NONE', #370, .T. ) ;
#1117 = CARTESIAN_POINT ( 'NONE',  ( -0.4999999999999996669, 1.399999999999999911, -0.6083333333333331705 ) ) ;
#1118 = CARTESIAN_POINT ( 'NONE',  ( 500000.0000000000582, 1.399999999999999911, 0.6083333332899650836 ) ) ;
#1119 = ADVANCED_FACE ( 'NONE', ( #1034 ), #230, .T. ) ;
#1120 = FACE_OUTER_BOUND ( 'NONE', #26, .T. ) ;
#1121 = ORIENTED_EDGE ( 'NONE', *, *, #849, .T. ) ;
#1122 = DIRECTION ( 'NONE',  ( 3.469446951953614682E-16, -0.000000000000000000, 1.000000000000000000 ) ) ;
#1123 = VECTOR ( 'NONE', #35, 1000.000000000000000 ) ;
#1124 = AXIS2_PLACEMENT_3D ( 'NONE', #316, #733, #525 ) ;
#1125 = CARTESIAN_POINT ( 'NONE',  ( -0.4999999999999997780, 1.399999999999999911, -0.5749999999999998446 ) ) ;
#1126 = DIRECTION ( 'NONE',  ( 1.000000000000000000, 0.000000000000000000, 0.000000000000000000 ) ) ;
#1127 = ADVANCED_FACE ( 'NONE', ( #827 ), #506, .F. ) ;
#1128 = ORIENTED_EDGE ( 'NONE', *, *, #983, .T. ) ;
#1129 = FACE_OUTER_BOUND ( 'NONE', #443, .T. ) ;
#1130 = ADVANCED_FACE ( 'NONE', ( #538 ), #237, .F. ) ;
#1131 = CARTESIAN_POINT ( 'NONE',  ( -1.000000000000000000, 0.04999999999999991257, -0.5749999999999998446 ) ) ;
#1132 = DIRECTION ( 'NONE',  ( -1.734723475976807341E-16, 0.000000000000000000, 1.000000000000000000 ) ) ;
#1133 = EDGE_LOOP ( 'NONE', ( #464, #375, #688 ) ) ;
#1134 = VECTOR ( 'NONE', #1057, 1000.000000000000000 ) ;
#1135 = ORIENTED_EDGE ( 'NONE', *, *, #840, .T. ) ;
#1136 = AXIS2_PLACEMENT_3D ( 'NONE', #837, #642, #22 ) ;
#1137 = CARTESIAN_POINT ( 'NONE',  ( -0.9499999999999999556, 0.04999999999999991257, -0.6249999999999998890 ) ) ;
#1138 = DIRECTION ( 'NONE',  ( 0.000000000000000000, 0.000000000000000000, 1.000000000000000000 ) ) ;
#1139 = VERTEX_POINT ( 'NONE', #639 ) ;
#1140 = ORIENTED_EDGE ( 'NONE', *, *, #207, .F. ) ;
#1141 = SHAPE_DEFINITION_REPRESENTATION ( #113, #825 ) ;
#1142 = LINE ( 'NONE', #253, #968 ) ;
#1143 = DIRECTION ( 'NONE',  ( 0.000000000000000000, 1.000000000000000000, -0.000000000000000000 ) ) ;
#1144 = AXIS2_PLACEMENT_3D ( 'NONE', #932, #1095, #641 ) ;
#1145 = CIRCLE ( 'NONE', #1024, 0.05000000000000002359 ) ;
#1146 = CARTESIAN_POINT ( 'NONE',  ( 0.9499999999999999556, 0.04999999999999991257, -0.6249999999999998890 ) ) ;
#1147 = VERTEX_POINT ( 'NONE', #20 ) ;
#1148 = CARTESIAN_POINT ( 'NONE',  ( 1.000000000000000000, 1.399999999999999911, -0.5749999999999998446 ) ) ;
#1149 = ORIENTED_EDGE ( 'NONE', *, *, #196, .F. ) ;
#1150 = SURFACE_SIDE_STYLE ('',( #444 ) ) ;
#1151 = MECHANICAL_DESIGN_GEOMETRIC_PRESENTATION_REPRESENTATION (  '', ( #426 ), #929 ) ;
#1152 = CARTESIAN_POINT ( 'NONE',  ( -0.4999999999999996669, 1.399999999999999911, 0.6083333333333331705 ) ) ;
#1153 = CARTESIAN_POINT ( 'NONE',  ( -0.9499999999999995115, 1.399999999999999911, 0.5749999999999996225 ) ) ;
#1154 = VERTEX_POINT ( 'NONE', #223 ) ;
#1155 = VECTOR ( 'NONE', #624, 1000.000000000000000 ) ;
#1156 = EDGE_LOOP ( 'NONE', ( #244, #604, #940 ) ) ;
#1157 = FILL_AREA_STYLE ('',( #772 ) ) ;
#1158 = CARTESIAN_POINT ( 'NONE',  ( -0.9499999999999999556, 1.399999999999999911, -0.5749999999999998446 ) ) ;
#1159 = PRODUCT_DEFINITION ( 'UNKNOWN', '', #913, #423 ) ;
#1160 = ORIENTED_EDGE ( 'NONE', *, *, #310, .F. ) ;
#1161 =( NAMED_UNIT ( * ) PLANE_ANGLE_UNIT ( ) SI_UNIT ( $, .RADIAN. ) );
#1162 = ORIENTED_EDGE ( 'NONE', *, *, #527, .F. ) ;
#1163 = CARTESIAN_POINT ( 'NONE',  ( -0.4999999999999996669, 1.433333333333333348, -0.5749999999999997335 ) ) ;
#1164 = ORIENTED_EDGE ( 'NONE', *, *, #1259, .F. ) ;
#1165 = SURFACE_SIDE_STYLE ('',( #1251 ) ) ;
#1166 = EDGE_CURVE ( 'NONE', #476, #292, #667, .T. ) ;
#1167 = DIRECTION ( 'NONE',  ( 3.469446951953614682E-16, -0.000000000000000000, 1.000000000000000000 ) ) ;
#1168 = ADVANCED_FACE ( 'NONE', ( #1129 ), #924, .F. ) ;
#1169 = DIRECTION ( 'NONE',  ( 0.000000000000000000, 0.000000000000000000, 1.000000000000000000 ) ) ;
#1170 =( GEOMETRIC_REPRESENTATION_CONTEXT ( 3 ) GLOBAL_UNCERTAINTY_ASSIGNED_CONTEXT ( ( #1182 ) ) GLOBAL_UNIT_ASSIGNED_CONTEXT ( ( #871, #164, #1238 ) ) REPRESENTATION_CONTEXT ( 'NONE', 'WORKASPACE' ) );
#1171 = ORIENTED_EDGE ( 'NONE', *, *, #840, .F. ) ;
#1172 = CARTESIAN_POINT ( 'NONE',  ( 0.4999999999881765689, 0.04999999999999991257, -0.5749999999999997335 ) ) ;
#1173 = CARTESIAN_POINT ( 'NONE',  ( -0.4999999999999997780, 1.449999999999999956, -0.6249999999999998890 ) ) ;
#1174 = ORIENTED_EDGE ( 'NONE', *, *, #206, .T. ) ;
#1175 = CARTESIAN_POINT ( 'NONE',  ( 0.000000000000000000, 1.399999999999999911, -0.5749999999999998446 ) ) ;
#1176 = ORIENTED_EDGE ( 'NONE', *, *, #983, .F. ) ;
#1177 = EDGE_CURVE ( 'NONE', #948, #778, #1198, .T. ) ;
#1178 = EDGE_LOOP ( 'NONE', ( #1083, #590, #1106, #895 ) ) ;
#1179 = PLANE ( 'NONE',  #176 ) ;
#1180 = ORIENTED_EDGE ( 'NONE', *, *, #300, .T. ) ;
#1181 = CARTESIAN_POINT ( 'NONE',  ( 0.4999999999999995559, 1.449999999999999956, 0.6249999999999996669 ) ) ;
#1182 = UNCERTAINTY_MEASURE_WITH_UNIT (LENGTH_MEASURE( 1.000000000000000082E-05 ), #871, 'distance_accuracy_value', 'NONE');
#1183 = EDGE_LOOP ( 'NONE', ( #654, #1113, #271, #755 ) ) ;
#1184 = CARTESIAN_POINT ( 'NONE',  ( 0.000000000000000000, 1.399999999999999911, -0.5749999999999998446 ) ) ;
#1185 = STYLED_ITEM ( 'NONE', ( #74 ), #982 ) ;
#1186 = PLANE ( 'NONE',  #782 ) ;
#1187 = AXIS2_PLACEMENT_3D ( 'NONE', #798, #103, #1084 ) ;
#1188 = EDGE_LOOP ( 'NONE', ( #1149, #720, #1216, #1164 ) ) ;
#1189 = LINE ( 'NONE', #706, #621 ) ;
#1190 = DIRECTION ( 'NONE',  ( -1.000000000000000000, 0.000000000000000000, 0.000000000000000000 ) ) ;
#1191 = ORIENTED_EDGE ( 'NONE', *, *, #1021, .F. ) ;
#1192 = LINE ( 'NONE', #931, #559 ) ;
#1193 = DIRECTION ( 'NONE',  ( 0.000000000000000000, 0.000000000000000000, -1.000000000000000000 ) ) ;
#1194 = CARTESIAN_POINT ( 'NONE',  ( -0.9499999999999995115, 0.04999999999999991257, 0.5749999999999996225 ) ) ;
#1195 = DIRECTION ( 'NONE',  ( 0.000000000000000000, -0.000000000000000000, 1.000000000000000000 ) ) ;
#1196 = DIRECTION ( 'NONE',  ( -1.000000000000000000, 0.000000000000000000, 0.000000000000000000 ) ) ;
#1197 = ORIENTED_EDGE ( 'NONE', *, *, #207, .T. ) ;
#1198 = LINE ( 'NONE', #816, #1155 ) ;
#1199 = CIRCLE ( 'NONE', #656, 0.05000000000000002359 ) ;
#1200 = DIRECTION ( 'NONE',  ( 1.000000000000000000, 0.000000000000000000, -8.673617379884036705E-17 ) ) ;
#1201 = CARTESIAN_POINT ( 'NONE',  ( -0.4999999999999997780, 1.449999999999999956, -0.6249999999999998890 ) ) ;
#1202 = ADVANCED_FACE ( 'NONE', ( #327 ), #132, .F. ) ;
#1203 = VECTOR ( 'NONE', #17, 1000.000000000000000 ) ;
#1204 = VECTOR ( 'NONE', #524, 1000.000000000000000 ) ;
#1205 = ADVANCED_FACE ( 'NONE', ( #647 ), #910, .F. ) ;
#1206 = ORIENTED_EDGE ( 'NONE', *, *, #935, .T. ) ;
#1207 = DIRECTION ( 'NONE',  ( -8.673617379884036705E-17, 0.000000000000000000, -1.000000000000000000 ) ) ;
#1208 = DIRECTION ( 'NONE',  ( 1.000000000000000000, 0.000000000000000000, 1.734723475976807341E-16 ) ) ;
#1209 = UNCERTAINTY_MEASURE_WITH_UNIT (LENGTH_MEASURE( 1.000000000000000082E-05 ), #658, 'distance_accuracy_value', 'NONE');
#1210 = CARTESIAN_POINT ( 'NONE',  ( -0.4999999999999995559, 1.449999999999999956, 0.5749999999999996225 ) ) ;
#1211 = DIRECTION ( 'NONE',  ( 0.000000000000000000, 1.000000000000000000, 0.000000000000000000 ) ) ;
#1212 =( GEOMETRIC_REPRESENTATION_CONTEXT ( 3 ) GLOBAL_UNCERTAINTY_ASSIGNED_CONTEXT ( ( #5 ) ) GLOBAL_UNIT_ASSIGNED_CONTEXT ( ( #1261, #878, #185 ) ) REPRESENTATION_CONTEXT ( 'NONE', 'WORKASPACE' ) );
#1213 = CARTESIAN_POINT ( 'NONE',  ( 0.9499999999999999556, 1.449999999999999956, -0.6249999999999998890 ) ) ;
#1214 = CIRCLE ( 'NONE', #120, 0.05000000000000002359 ) ;
#1215 = DIRECTION ( 'NONE',  ( 1.000000000000000000, 0.000000000000000000, 1.734723475976807341E-16 ) ) ;
#1216 = ORIENTED_EDGE ( 'NONE', *, *, #288, .F. ) ;
#1217 = LINE ( 'NONE', #1023, #832 ) ;
#1218 = DIRECTION ( 'NONE',  ( 1.000000000000000000, 0.000000000000000000, -8.673617379884036705E-17 ) ) ;
#1219 = ADVANCED_FACE ( 'NONE', ( #413 ), #1223, .T. ) ;
#1220 = EDGE_CURVE ( 'NONE', #771, #269, #685, .T. ) ;
#1221 = DIRECTION ( 'NONE',  ( -3.469446951953614682E-16, 0.000000000000000000, -1.000000000000000000 ) ) ;
#1222 = ORIENTED_EDGE ( 'NONE', *, *, #1258, .T. ) ;
#1223 = CYLINDRICAL_SURFACE ( 'NONE', #727, 0.03333333333333334675 ) ;
#1224 = DIRECTION ( 'NONE',  ( 0.000000000000000000, 0.000000000000000000, 1.000000000000000000 ) ) ;
#1225 = DIRECTION ( 'NONE',  ( 0.000000000000000000, -1.000000000000000000, 0.000000000000000000 ) ) ;
#1226 = ORIENTED_EDGE ( 'NONE', *, *, #803, .T. ) ;
#1227 = VERTEX_POINT ( 'NONE', #340 ) ;
#1228 = CARTESIAN_POINT ( 'NONE',  ( 1.000000000000000000, 0.04999999999999991257, -0.5749999999999998446 ) ) ;
#1229 = SURFACE_SIDE_STYLE ('',( #1062 ) ) ;
#1230 = LINE ( 'NONE', #951, #643 ) ;
#1231 = ORIENTED_EDGE ( 'NONE', *, *, #1166, .T. ) ;
#1232 = ORIENTED_EDGE ( 'NONE', *, *, #520, .F. ) ;
#1233 = LINE ( 'NONE', #853, #1134 ) ;
#1234 = DIRECTION ( 'NONE',  ( 3.469446951953614682E-16, -0.000000000000000000, 1.000000000000000000 ) ) ;
#1235 = DIRECTION ( 'NONE',  ( 0.000000000000000000, -1.000000000000000000, 0.000000000000000000 ) ) ;
#1236 = DIRECTION ( 'NONE',  ( -0.000000000000000000, -1.000000000000000000, -0.000000000000000000 ) ) ;
#1237 = ORIENTED_EDGE ( 'NONE', *, *, #935, .F. ) ;
#1238 =( NAMED_UNIT ( * ) SI_UNIT ( $, .STERADIAN. ) SOLID_ANGLE_UNIT ( ) );
#1239 = ORIENTED_EDGE ( 'NONE', *, *, #288, .T. ) ;
#1240 = LINE ( 'NONE', #956, #761 ) ;
#1241 = DIRECTION ( 'NONE',  ( 0.000000000000000000, 0.000000000000000000, -1.000000000000000000 ) ) ;
#1242 = CIRCLE ( 'NONE', #153, 0.05000000000000002359 ) ;
#1243 = EDGE_CURVE ( 'NONE', #760, #1092, #742, .T. ) ;
#1244 = ORIENTED_EDGE ( 'NONE', *, *, #627, .T. ) ;
#1245 = FACE_OUTER_BOUND ( 'NONE', #282, .T. ) ;
#1246 = COLOUR_RGB ( '',0.7921568627450980005, 0.8196078431372548767, 0.9333333333333333481 ) ;
#1247 = CIRCLE ( 'NONE', #72, 0.05000000000000002359 ) ;
#1248 = CARTESIAN_POINT ( 'NONE',  ( -0.4999999999999996669, 1.399999999999999911, 0.5749999999999997335 ) ) ;
#1249 = DIRECTION ( 'NONE',  ( 1.000000000000000000, 0.000000000000000000, 0.000000000000000000 ) ) ;
#1250 = ORIENTED_EDGE ( 'NONE', *, *, #84, .F. ) ;
#1251 = SURFACE_STYLE_FILL_AREA ( #966 ) ;
#1252 = AXIS2_PLACEMENT_3D ( 'NONE', #1102, #215, #139 ) ;
#1253 = CARTESIAN_POINT ( 'NONE',  ( 1.000000000000000000, 0.04999999999999991257, -0.6249999999999998890 ) ) ;
#1254 = ORIENTED_EDGE ( 'NONE', *, *, #1274, .T. ) ;
#1255 = AXIS2_PLACEMENT_3D ( 'NONE', #48, #1018, #336 ) ;
#1256 = VERTEX_POINT ( 'NONE', #409 ) ;
#1257 = CARTESIAN_POINT ( 'NONE',  ( -0.4999999999999996669, 1.433333333333333348, 0.5749999999999997335 ) ) ;
#1258 = EDGE_CURVE ( 'NONE', #150, #880, #1217, .T. ) ;
#1259 = EDGE_CURVE ( 'NONE', #1227, #236, #721, .T. ) ;
#1260 = ORIENTED_EDGE ( 'NONE', *, *, #250, .T. ) ;
#1261 =( LENGTH_UNIT ( ) NAMED_UNIT ( * ) SI_UNIT ( .MILLI., .METRE. ) );
#1262 = CARTESIAN_POINT ( 'NONE',  ( 0.4999999999999995559, 0.04999999999999991257, 0.5749999999999996225 ) ) ;
#1263 = CARTESIAN_POINT ( 'NONE',  ( -0.4999999999999995559, 0.000000000000000000, 0.5749999999999997335 ) ) ;
#1264 = ORIENTED_EDGE ( 'NONE', *, *, #996, .F. ) ;
#1265 = VECTOR ( 'NONE', #85, 1000.000000000000000 ) ;
#1266 = AXIS2_PLACEMENT_3D ( 'NONE', #523, #109, #1099 ) ;
#1267 = VECTOR ( 'NONE', #1007, 1000.000000000000000 ) ;
#1268 = CARTESIAN_POINT ( 'NONE',  ( 0.4999999999999997780, 0.000000000000000000, -0.5749999999999998446 ) ) ;
#1269 = CARTESIAN_POINT ( 'NONE',  ( 0.9499999999999995115, 1.449999999999999956, 0.6249999999999996669 ) ) ;
#1270 = AXIS2_PLACEMENT_3D ( 'NONE', #371, #83, #775 ) ;
#1271 = ORIENTED_EDGE ( 'NONE', *, *, #990, .F. ) ;
#1272 = LINE ( 'NONE', #905, #96 ) ;
#1273 = VECTOR ( 'NONE', #882, 1000.000000000000000 ) ;
#1274 = EDGE_CURVE ( 'NONE', #476, #173, #1233, .T. ) ;
#1275 = LINE ( 'NONE', #1181, #770 ) ;
#1276 = CIRCLE ( 'NONE', #305, 0.05000000000000002359 ) ;
#1277 = EDGE_LOOP ( 'NONE', ( #1072, #978, #1097, #1222 ) ) ;
#1278 = DIRECTION ( 'NONE',  ( -1.000000000000000000, -0.000000000000000000, 8.673617379884036705E-17 ) ) ;
#1279 = ORIENTED_EDGE ( 'NONE', *, *, #726, .F. ) ;
#1280 = DIRECTION ( 'NONE',  ( -3.469446951953614682E-16, 0.000000000000000000, -1.000000000000000000 ) ) ;
ENDSEC;
END-ISO-10303-21;
